<?xml version="1.0" encoding="UTF-8" standalone="no"?>
<!DOCTYPE svg PUBLIC "-//W3C//DTD SVG 1.1//EN"
 "http://www.w3.org/Graphics/SVG/1.1/DTD/svg11.dtd">
<!-- Generated by graphviz version 2.47.0 (20210316.0004)
 -->
<!-- Title: dependencies Pages: 1 -->
<svg width="504pt" height="284pt"
 viewBox="0.00 0.00 504.00 284.00" xmlns="http://www.w3.org/2000/svg" xmlns:xlink="http://www.w3.org/1999/xlink">
<g id="graph0" class="graph" transform="scale(1 1) rotate(0) translate(4 280)">
<title>dependencies</title>
<polygon fill="white" stroke="transparent" points="-4,4 -4,-280 500,-280 500,4 -4,4"/>
<text text-anchor="start" x="227.01" y="-42.4" font-family="Times-12" font-weight="bold" font-size="14.00">Legend</text>
<polygon fill="#ffffb3" stroke="transparent" points="14,-10 14,-30 34,-30 34,-10 14,-10"/>
<text text-anchor="start" x="37.63" y="-15.4" font-family="Times-12" font-size="14.00"> &#160;Declarations</text>
<polygon fill="#8dd3c7" stroke="transparent" points="127,-10 127,-30 147,-30 147,-10 127,-10"/>
<text text-anchor="start" x="150.73" y="-15.4" font-family="Times-12" font-size="14.00"> &#160;Module</text>
<polygon fill="#80b1d3" stroke="transparent" points="213,-10 213,-30 233,-30 233,-10 213,-10"/>
<text text-anchor="start" x="236.78" y="-15.4" font-family="Times-12" font-size="14.00"> &#160;Bootstrap</text>
<polygon fill="#fdb462" stroke="transparent" points="310,-10 310,-30 330,-30 330,-10 310,-10"/>
<text text-anchor="start" x="333.67" y="-15.4" font-family="Times-12" font-size="14.00"> &#160;Providers</text>
<polygon fill="#fb8072" stroke="transparent" points="406,-10 406,-30 426,-30 426,-10 406,-10"/>
<text text-anchor="start" x="429.73" y="-15.4" font-family="Times-12" font-size="14.00"> &#160;Exports</text>
<g id="clust1" class="cluster">
<title>cluster_QueueModule</title>
<polygon fill="none" stroke="black" stroke-dasharray="1,5" points="35,-70 35,-268 461,-268 461,-70 35,-70"/>
</g>
<g id="clust4" class="cluster">
<title>cluster_QueueModule_exports</title>
<polygon fill="none" stroke="black" points="43,-208 43,-260 453,-260 453,-208 43,-208"/>
</g>
<g id="clust6" class="cluster">
<title>cluster_QueueModule_providers</title>
<polygon fill="none" stroke="black" points="62,-78 62,-130 434,-130 434,-78 62,-78"/>
</g>
<!-- QueueGateway  -->
<g id="node1" class="node">
<title>QueueGateway </title>
<polygon fill="#fb8072" stroke="black" points="444.78,-252 339.22,-252 339.22,-216 444.78,-216 444.78,-252"/>
<text text-anchor="middle" x="392" y="-229.8" font-family="Times,serif" font-size="14.00">QueueGateway </text>
</g>
<!-- QueueSchedulerService  -->
<g id="node2" class="node">
<title>QueueSchedulerService </title>
<polygon fill="#fb8072" stroke="black" points="320.99,-252 167.01,-252 167.01,-216 320.99,-216 320.99,-252"/>
<text text-anchor="middle" x="244" y="-229.8" font-family="Times,serif" font-size="14.00">QueueSchedulerService </text>
</g>
<!-- QueueService  -->
<g id="node3" class="node">
<title>QueueService </title>
<polygon fill="#fb8072" stroke="black" points="149.01,-252 50.99,-252 50.99,-216 149.01,-216 149.01,-252"/>
<text text-anchor="middle" x="100" y="-229.8" font-family="Times,serif" font-size="14.00">QueueService </text>
</g>
<!-- QueueModule -->
<g id="node4" class="node">
<title>QueueModule</title>
<polygon fill="#8dd3c7" stroke="black" points="292.09,-187 289.09,-191 268.09,-191 265.09,-187 195.91,-187 195.91,-151 292.09,-151 292.09,-187"/>
<text text-anchor="middle" x="244" y="-164.8" font-family="Times,serif" font-size="14.00">QueueModule</text>
</g>
<!-- QueueModule&#45;&gt;QueueGateway  -->
<g id="edge1" class="edge">
<title>QueueModule&#45;&gt;QueueGateway </title>
<path fill="none" stroke="black" stroke-dasharray="5,2" d="M292.43,-169C332.35,-169 382.46,-169 382.46,-169 382.46,-169 382.46,-205.89 382.46,-205.89"/>
<polygon fill="black" stroke="black" points="378.96,-205.89 382.46,-215.89 385.96,-205.89 378.96,-205.89"/>
</g>
<!-- QueueModule&#45;&gt;QueueSchedulerService  -->
<g id="edge2" class="edge">
<title>QueueModule&#45;&gt;QueueSchedulerService </title>
<path fill="none" stroke="black" stroke-dasharray="5,2" d="M244,-187.11C244,-187.11 244,-205.99 244,-205.99"/>
<polygon fill="black" stroke="black" points="240.5,-205.99 244,-215.99 247.5,-205.99 240.5,-205.99"/>
</g>
<!-- QueueModule&#45;&gt;QueueService  -->
<g id="edge3" class="edge">
<title>QueueModule&#45;&gt;QueueService </title>
<path fill="none" stroke="black" stroke-dasharray="5,2" d="M195.79,-169C157.17,-169 109.41,-169 109.41,-169 109.41,-169 109.41,-205.89 109.41,-205.89"/>
<polygon fill="black" stroke="black" points="105.91,-205.89 109.41,-215.89 112.91,-205.89 105.91,-205.89"/>
</g>
<!-- QueueSchedulerService -->
<g id="node5" class="node">
<title>QueueSchedulerService</title>
<ellipse fill="#fdb462" stroke="black" cx="322" cy="-104" rx="103.61" ry="18"/>
<text text-anchor="middle" x="322" y="-99.8" font-family="Times,serif" font-size="14.00">QueueSchedulerService</text>
</g>
<!-- QueueSchedulerService&#45;&gt;QueueModule -->
<g id="edge4" class="edge">
<title>QueueSchedulerService&#45;&gt;QueueModule</title>
<path fill="none" stroke="black" d="M255.12,-117.78C255.12,-117.78 255.12,-140.55 255.12,-140.55"/>
<polygon fill="black" stroke="black" points="251.62,-140.55 255.12,-150.55 258.62,-140.55 251.62,-140.55"/>
</g>
<!-- QueueService -->
<g id="node6" class="node">
<title>QueueService</title>
<ellipse fill="#fdb462" stroke="black" cx="135" cy="-104" rx="65.39" ry="18"/>
<text text-anchor="middle" x="135" y="-99.8" font-family="Times,serif" font-size="14.00">QueueService</text>
</g>
<!-- QueueService&#45;&gt;QueueModule -->
<g id="edge5" class="edge">
<title>QueueService&#45;&gt;QueueModule</title>
<path fill="none" stroke="black" d="M200.39,-104C205.77,-104 209.19,-104 209.19,-104 209.19,-104 209.19,-140.89 209.19,-140.89"/>
<polygon fill="black" stroke="black" points="205.69,-140.89 209.19,-150.89 212.69,-140.89 205.69,-140.89"/>
</g>
</g>
</svg>
