<?xml version="1.0" encoding="UTF-8" standalone="no"?>
<!DOCTYPE svg PUBLIC "-//W3C//DTD SVG 1.1//EN"
 "http://www.w3.org/Graphics/SVG/1.1/DTD/svg11.dtd">
<!-- Generated by graphviz version 2.47.0 (20210316.0004)
 -->
<!-- Title: dependencies Pages: 1 -->
<svg width="903pt" height="295pt"
 viewBox="0.00 0.00 903.00 295.00" xmlns="http://www.w3.org/2000/svg" xmlns:xlink="http://www.w3.org/1999/xlink">
<g id="graph0" class="graph" transform="scale(1 1) rotate(0) translate(4 291)">
<title>dependencies</title>
<polygon fill="white" stroke="transparent" points="-4,4 -4,-291 899,-291 899,4 -4,4"/>
<text text-anchor="start" x="426.51" y="-42.4" font-family="Times-12" font-weight="bold" font-size="14.00">Legend</text>
<polygon fill="#ffffb3" stroke="transparent" points="213.5,-10 213.5,-30 233.5,-30 233.5,-10 213.5,-10"/>
<text text-anchor="start" x="237.13" y="-15.4" font-family="Times-12" font-size="14.00"> &#160;Declarations</text>
<polygon fill="#8dd3c7" stroke="transparent" points="326.5,-10 326.5,-30 346.5,-30 346.5,-10 326.5,-10"/>
<text text-anchor="start" x="350.23" y="-15.4" font-family="Times-12" font-size="14.00"> &#160;Module</text>
<polygon fill="#80b1d3" stroke="transparent" points="412.5,-10 412.5,-30 432.5,-30 432.5,-10 412.5,-10"/>
<text text-anchor="start" x="436.28" y="-15.4" font-family="Times-12" font-size="14.00"> &#160;Bootstrap</text>
<polygon fill="#fdb462" stroke="transparent" points="509.5,-10 509.5,-30 529.5,-30 529.5,-10 509.5,-10"/>
<text text-anchor="start" x="533.17" y="-15.4" font-family="Times-12" font-size="14.00"> &#160;Providers</text>
<polygon fill="#fb8072" stroke="transparent" points="605.5,-10 605.5,-30 625.5,-30 625.5,-10 605.5,-10"/>
<text text-anchor="start" x="629.23" y="-15.4" font-family="Times-12" font-size="14.00"> &#160;Exports</text>
<g id="clust1" class="cluster">
<title>cluster_AppModule</title>
<polygon fill="none" stroke="black" stroke-dasharray="1,5" points="8,-70 8,-271 379,-271 379,-70 8,-70"/>
</g>
<g id="clust3" class="cluster">
<title>cluster_AppModule_imports</title>
<polygon fill="none" stroke="black" points="154,-78 154,-195 371,-195 371,-78 154,-78"/>
</g>
<g id="clust6" class="cluster">
<title>cluster_AppModule_providers</title>
<polygon fill="none" stroke="black" points="16,-143 16,-195 146,-195 146,-143 16,-143"/>
</g>
<g id="clust7" class="cluster">
<title>cluster_AuthModule</title>
<polygon fill="none" stroke="black" stroke-dasharray="1,5" points="387,-211 387,-279 887,-279 887,-211 387,-211"/>
</g>
<g id="clust10" class="cluster">
<title>cluster_AuthModule_exports</title>
<polygon fill="none" stroke="black" points="669,-219 669,-271 879,-271 879,-219 669,-219"/>
</g>
<g id="clust12" class="cluster">
<title>cluster_AuthModule_providers</title>
<polygon fill="none" stroke="black" points="395,-219 395,-271 661,-271 661,-219 395,-219"/>
</g>
<g id="clust13" class="cluster">
<title>cluster_RolesModule</title>
<polygon fill="none" stroke="black" stroke-dasharray="1,5" points="387,-135 387,-203 661,-203 661,-135 387,-135"/>
</g>
<g id="clust16" class="cluster">
<title>cluster_RolesModule_exports</title>
<polygon fill="none" stroke="black" points="543,-143 543,-195 653,-195 653,-143 543,-143"/>
</g>
<g id="clust18" class="cluster">
<title>cluster_RolesModule_providers</title>
<polygon fill="none" stroke="black" points="395,-143 395,-195 535,-195 535,-143 395,-143"/>
</g>
<!-- AuthModule -->
<g id="node1" class="node">
<title>AuthModule</title>
<polygon fill="#8dd3c7" stroke="black" points="362.55,-187 359.55,-191 338.55,-191 335.55,-187 275.45,-187 275.45,-151 362.55,-151 362.55,-187"/>
<text text-anchor="middle" x="319" y="-164.8" font-family="Times,serif" font-size="14.00">AuthModule</text>
</g>
<!-- AppModule -->
<g id="node4" class="node">
<title>AppModule</title>
<polygon fill="#8dd3c7" stroke="black" points="273.66,-263 270.66,-267 249.66,-267 246.66,-263 190.34,-263 190.34,-227 273.66,-227 273.66,-263"/>
<text text-anchor="middle" x="232" y="-240.8" font-family="Times,serif" font-size="14.00">AppModule</text>
</g>
<!-- AuthModule&#45;&gt;AppModule -->
<g id="edge1" class="edge">
<title>AuthModule&#45;&gt;AppModule</title>
<path fill="none" stroke="black" d="M275.25,-175C269.43,-175 265.42,-175 265.42,-175 265.42,-175 265.42,-216.97 265.42,-216.97"/>
<polygon fill="black" stroke="black" points="261.92,-216.97 265.42,-226.97 268.92,-216.97 261.92,-216.97"/>
</g>
<!-- AuthService  -->
<g id="node6" class="node">
<title>AuthService </title>
<polygon fill="#fb8072" stroke="black" points="766.98,-263 677.02,-263 677.02,-227 766.98,-227 766.98,-263"/>
<text text-anchor="middle" x="722" y="-240.8" font-family="Times,serif" font-size="14.00">AuthService </text>
</g>
<!-- AuthModule&#45;&gt;AuthService  -->
<g id="edge6" class="edge">
<title>AuthModule&#45;&gt;AuthService </title>
<path fill="none" stroke="black" stroke-dasharray="5,2" d="M292.74,-187.11C292.74,-196.9 292.74,-207 292.74,-207 292.74,-207 722,-207 722,-207 722,-207 722,-216.89 722,-216.89"/>
<polygon fill="black" stroke="black" points="718.5,-216.89 722,-226.89 725.5,-216.89 718.5,-216.89"/>
</g>
<!-- JwtStrategy  -->
<g id="node7" class="node">
<title>JwtStrategy </title>
<polygon fill="#fb8072" stroke="black" points="870.6,-263 785.4,-263 785.4,-227 870.6,-227 870.6,-263"/>
<text text-anchor="middle" x="828" y="-240.8" font-family="Times,serif" font-size="14.00">JwtStrategy </text>
</g>
<!-- AuthModule&#45;&gt;JwtStrategy  -->
<g id="edge7" class="edge">
<title>AuthModule&#45;&gt;JwtStrategy </title>
<path fill="none" stroke="black" stroke-dasharray="5,2" d="M310.25,-187.21C310.25,-192.55 310.25,-197 310.25,-197 310.25,-197 828,-197 828,-197 828,-197 828,-216.85 828,-216.85"/>
<polygon fill="black" stroke="black" points="824.5,-216.85 828,-226.85 831.5,-216.85 824.5,-216.85"/>
</g>
<!-- RolesModule -->
<g id="node2" class="node">
<title>RolesModule</title>
<polygon fill="#8dd3c7" stroke="black" points="362.94,-122 359.94,-126 338.94,-126 335.94,-122 271.06,-122 271.06,-86 362.94,-86 362.94,-122"/>
<text text-anchor="middle" x="317" y="-99.8" font-family="Times,serif" font-size="14.00">RolesModule</text>
</g>
<!-- RolesModule&#45;&gt;AuthModule -->
<g id="edge5" class="edge">
<title>RolesModule&#45;&gt;AuthModule</title>
<path fill="none" stroke="black" d="M318.97,-122.11C318.97,-122.11 318.97,-140.99 318.97,-140.99"/>
<polygon fill="black" stroke="black" points="315.47,-140.99 318.97,-150.99 322.47,-140.99 315.47,-140.99"/>
</g>
<!-- RolesModule&#45;&gt;AppModule -->
<g id="edge2" class="edge">
<title>RolesModule&#45;&gt;AppModule</title>
<path fill="none" stroke="black" d="M271.19,-104C264.37,-104 259.57,-104 259.57,-104 259.57,-104 259.57,-216.86 259.57,-216.86"/>
<polygon fill="black" stroke="black" points="256.07,-216.86 259.57,-226.86 263.07,-216.86 256.07,-216.86"/>
</g>
<!-- RolesService  -->
<g id="node10" class="node">
<title>RolesService </title>
<polygon fill="#fb8072" stroke="black" points="644.86,-187 551.14,-187 551.14,-151 644.86,-151 644.86,-187"/>
<text text-anchor="middle" x="598" y="-164.8" font-family="Times,serif" font-size="14.00">RolesService </text>
</g>
<!-- RolesModule&#45;&gt;RolesService  -->
<g id="edge10" class="edge">
<title>RolesModule&#45;&gt;RolesService </title>
<path fill="none" stroke="black" stroke-dasharray="5,2" d="M362.77,-98C442.4,-98 598,-98 598,-98 598,-98 598,-140.72 598,-140.72"/>
<polygon fill="black" stroke="black" points="594.5,-140.72 598,-150.72 601.5,-140.72 594.5,-140.72"/>
</g>
<!-- UsersModule -->
<g id="node3" class="node">
<title>UsersModule</title>
<polygon fill="#8dd3c7" stroke="black" points="253.92,-122 250.92,-126 229.92,-126 226.92,-122 162.08,-122 162.08,-86 253.92,-86 253.92,-122"/>
<text text-anchor="middle" x="208" y="-99.8" font-family="Times,serif" font-size="14.00">UsersModule</text>
</g>
<!-- UsersModule&#45;&gt;AppModule -->
<g id="edge3" class="edge">
<title>UsersModule&#45;&gt;AppModule</title>
<path fill="none" stroke="black" d="M232.53,-122.14C232.53,-122.14 232.53,-216.93 232.53,-216.93"/>
<polygon fill="black" stroke="black" points="229.03,-216.92 232.53,-226.93 236.03,-216.93 229.03,-216.92"/>
</g>
<!-- AppService -->
<g id="node5" class="node">
<title>AppService</title>
<ellipse fill="#fdb462" stroke="black" cx="81" cy="-169" rx="56.74" ry="18"/>
<text text-anchor="middle" x="81" y="-164.8" font-family="Times,serif" font-size="14.00">AppService</text>
</g>
<!-- AppService&#45;&gt;AppModule -->
<g id="edge4" class="edge">
<title>AppService&#45;&gt;AppModule</title>
<path fill="none" stroke="black" d="M134.39,-163C170.39,-163 211.35,-163 211.35,-163 211.35,-163 211.35,-216.8 211.35,-216.8"/>
<polygon fill="black" stroke="black" points="207.85,-216.8 211.35,-226.8 214.85,-216.8 207.85,-216.8"/>
</g>
<!-- AuthService -->
<g id="node8" class="node">
<title>AuthService</title>
<ellipse fill="#fdb462" stroke="black" cx="462" cy="-245" rx="59.11" ry="18"/>
<text text-anchor="middle" x="462" y="-240.8" font-family="Times,serif" font-size="14.00">AuthService</text>
</g>
<!-- AuthService&#45;&gt;AuthModule -->
<g id="edge8" class="edge">
<title>AuthService&#45;&gt;AuthModule</title>
<path fill="none" stroke="black" d="M402.61,-245C373.77,-245 345.26,-245 345.26,-245 345.26,-245 345.26,-197.01 345.26,-197.01"/>
<polygon fill="black" stroke="black" points="348.76,-197.01 345.26,-187.01 341.76,-197.01 348.76,-197.01"/>
</g>
<!-- JwtStrategy -->
<g id="node9" class="node">
<title>JwtStrategy</title>
<ellipse fill="#fdb462" stroke="black" cx="596" cy="-245" rx="56.76" ry="18"/>
<text text-anchor="middle" x="596" y="-240.8" font-family="Times,serif" font-size="14.00">JwtStrategy</text>
</g>
<!-- JwtStrategy&#45;&gt;AuthModule -->
<g id="edge9" class="edge">
<title>JwtStrategy&#45;&gt;AuthModule</title>
<path fill="none" stroke="black" d="M545.35,-236.75C545.35,-228.49 545.35,-217 545.35,-217 545.35,-217 327.75,-217 327.75,-217 327.75,-217 327.75,-197.15 327.75,-197.15"/>
<polygon fill="black" stroke="black" points="331.25,-197.15 327.75,-187.15 324.25,-197.15 331.25,-197.15"/>
</g>
<!-- RolesService -->
<g id="node11" class="node">
<title>RolesService</title>
<ellipse fill="#fdb462" stroke="black" cx="465" cy="-169" rx="61.97" ry="18"/>
<text text-anchor="middle" x="465" y="-164.8" font-family="Times,serif" font-size="14.00">RolesService</text>
</g>
<!-- RolesService&#45;&gt;RolesModule -->
<g id="edge11" class="edge">
<title>RolesService&#45;&gt;RolesModule</title>
<path fill="none" stroke="black" d="M465,-150.98C465,-133.63 465,-110 465,-110 465,-110 373.02,-110 373.02,-110"/>
<polygon fill="black" stroke="black" points="373.02,-106.5 363.02,-110 373.02,-113.5 373.02,-106.5"/>
</g>
</g>
</svg>
