<?xml version="1.0" encoding="UTF-8" standalone="no"?>
<!DOCTYPE svg PUBLIC "-//W3C//DTD SVG 1.1//EN"
 "http://www.w3.org/Graphics/SVG/1.1/DTD/svg11.dtd">
<!-- Generated by graphviz version 2.47.0 (20210316.0004)
 -->
<!-- Title: dependencies Pages: 1 -->
<svg width="4688pt" height="298pt"
 viewBox="0.00 0.00 4688.00 298.00" xmlns="http://www.w3.org/2000/svg" xmlns:xlink="http://www.w3.org/1999/xlink">
<g id="graph0" class="graph" transform="scale(1 1) rotate(0) translate(4 294)">
<title>dependencies</title>
<polygon fill="white" stroke="transparent" points="-4,4 -4,-294 4684,-294 4684,4 -4,4"/>
<text text-anchor="start" x="2319.01" y="-42.4" font-family="Times-12" font-weight="bold" font-size="14.00">Legend</text>
<polygon fill="#ffffb3" stroke="transparent" points="2106,-10 2106,-30 2126,-30 2126,-10 2106,-10"/>
<text text-anchor="start" x="2129.63" y="-15.4" font-family="Times-12" font-size="14.00"> &#160;Declarations</text>
<polygon fill="#8dd3c7" stroke="transparent" points="2219,-10 2219,-30 2239,-30 2239,-10 2219,-10"/>
<text text-anchor="start" x="2242.73" y="-15.4" font-family="Times-12" font-size="14.00"> &#160;Module</text>
<polygon fill="#80b1d3" stroke="transparent" points="2305,-10 2305,-30 2325,-30 2325,-10 2305,-10"/>
<text text-anchor="start" x="2328.78" y="-15.4" font-family="Times-12" font-size="14.00"> &#160;Bootstrap</text>
<polygon fill="#fdb462" stroke="transparent" points="2402,-10 2402,-30 2422,-30 2422,-10 2402,-10"/>
<text text-anchor="start" x="2425.67" y="-15.4" font-family="Times-12" font-size="14.00"> &#160;Providers</text>
<polygon fill="#fb8072" stroke="transparent" points="2498,-10 2498,-30 2518,-30 2518,-10 2498,-10"/>
<text text-anchor="start" x="2521.73" y="-15.4" font-family="Times-12" font-size="14.00"> &#160;Exports</text>
<g id="clust1" class="cluster">
<title>cluster_AnnouncementModule</title>
<polygon fill="none" stroke="black" stroke-dasharray="1,5" points="4442,-70 4442,-282 4672,-282 4672,-70 4442,-70"/>
</g>
<g id="clust4" class="cluster">
<title>cluster_AnnouncementModule_exports</title>
<polygon fill="none" stroke="black" points="4462,-222 4462,-274 4626,-274 4626,-222 4462,-222"/>
</g>
<g id="clust6" class="cluster">
<title>cluster_AnnouncementModule_providers</title>
<polygon fill="none" stroke="black" points="4450,-78 4450,-130 4664,-130 4664,-78 4450,-78"/>
</g>
<g id="clust7" class="cluster">
<title>cluster_AppModule</title>
<polygon fill="none" stroke="black" stroke-dasharray="1,5" points="1016,-70 1016,-274 2181,-274 2181,-70 1016,-70"/>
</g>
<g id="clust9" class="cluster">
<title>cluster_AppModule_imports</title>
<polygon fill="none" stroke="black" points="1593,-78 1593,-198 2173,-198 2173,-78 1593,-78"/>
</g>
<g id="clust12" class="cluster">
<title>cluster_AppModule_providers</title>
<polygon fill="none" stroke="black" points="1024,-78 1024,-130 1585,-130 1585,-78 1024,-78"/>
</g>
<g id="clust13" class="cluster">
<title>cluster_AppointmentModule</title>
<polygon fill="none" stroke="black" stroke-dasharray="1,5" points="2189,-138 2189,-206 2563,-206 2563,-138 2189,-138"/>
</g>
<g id="clust16" class="cluster">
<title>cluster_AppointmentModule_exports</title>
<polygon fill="none" stroke="black" points="2403,-146 2403,-198 2555,-198 2555,-146 2403,-146"/>
</g>
<g id="clust18" class="cluster">
<title>cluster_AppointmentModule_providers</title>
<polygon fill="none" stroke="black" points="2197,-146 2197,-198 2395,-198 2395,-146 2197,-146"/>
</g>
<g id="clust19" class="cluster">
<title>cluster_AuthModule</title>
<polygon fill="none" stroke="black" stroke-dasharray="1,5" points="8,-214 8,-282 726,-282 726,-214 8,-214"/>
</g>
<g id="clust22" class="cluster">
<title>cluster_AuthModule_exports</title>
<polygon fill="none" stroke="black" points="290,-222 290,-274 718,-274 718,-222 290,-222"/>
</g>
<g id="clust24" class="cluster">
<title>cluster_AuthModule_providers</title>
<polygon fill="none" stroke="black" points="16,-222 16,-274 282,-274 282,-222 16,-222"/>
</g>
<g id="clust25" class="cluster">
<title>cluster_DocumentApplicationsModule</title>
<polygon fill="none" stroke="black" stroke-dasharray="1,5" points="2571,-138 2571,-206 3338,-206 3338,-138 2571,-138"/>
</g>
<g id="clust28" class="cluster">
<title>cluster_DocumentApplicationsModule_exports</title>
<polygon fill="none" stroke="black" points="3008,-146 3008,-198 3330,-198 3330,-146 3008,-146"/>
</g>
<g id="clust30" class="cluster">
<title>cluster_DocumentApplicationsModule_providers</title>
<polygon fill="none" stroke="black" points="2579,-146 2579,-198 3000,-198 3000,-146 2579,-146"/>
</g>
<g id="clust31" class="cluster">
<title>cluster_QueueModule</title>
<polygon fill="none" stroke="black" stroke-dasharray="1,5" points="3346,-138 3346,-206 4152,-206 4152,-138 3346,-138"/>
</g>
<g id="clust34" class="cluster">
<title>cluster_QueueModule_exports</title>
<polygon fill="none" stroke="black" points="3734,-146 3734,-198 4144,-198 4144,-146 3734,-146"/>
</g>
<g id="clust36" class="cluster">
<title>cluster_QueueModule_providers</title>
<polygon fill="none" stroke="black" points="3354,-146 3354,-198 3726,-198 3726,-146 3354,-146"/>
</g>
<g id="clust37" class="cluster">
<title>cluster_RolesModule</title>
<polygon fill="none" stroke="black" stroke-dasharray="1,5" points="4160,-138 4160,-206 4434,-206 4434,-138 4160,-138"/>
</g>
<g id="clust40" class="cluster">
<title>cluster_RolesModule_exports</title>
<polygon fill="none" stroke="black" points="4316,-146 4316,-198 4426,-198 4426,-146 4316,-146"/>
</g>
<g id="clust42" class="cluster">
<title>cluster_RolesModule_providers</title>
<polygon fill="none" stroke="black" points="4168,-146 4168,-198 4308,-198 4308,-146 4168,-146"/>
</g>
<g id="clust43" class="cluster">
<title>cluster_UsersModule</title>
<polygon fill="none" stroke="black" stroke-dasharray="1,5" points="734,-214 734,-282 1008,-282 1008,-214 734,-214"/>
</g>
<g id="clust46" class="cluster">
<title>cluster_UsersModule_exports</title>
<polygon fill="none" stroke="black" points="890,-222 890,-274 1000,-274 1000,-222 890,-222"/>
</g>
<g id="clust48" class="cluster">
<title>cluster_UsersModule_providers</title>
<polygon fill="none" stroke="black" points="742,-222 742,-274 882,-274 882,-222 742,-222"/>
</g>
<!-- AnnouncementService  -->
<g id="node1" class="node">
<title>AnnouncementService </title>
<polygon fill="#fb8072" stroke="black" points="4617.51,-266 4470.49,-266 4470.49,-230 4617.51,-230 4617.51,-266"/>
<text text-anchor="middle" x="4544" y="-243.8" font-family="Times,serif" font-size="14.00">AnnouncementService </text>
</g>
<!-- AnnouncementModule -->
<g id="node2" class="node">
<title>AnnouncementModule</title>
<polygon fill="#8dd3c7" stroke="black" points="4616.58,-190 4613.58,-194 4592.58,-194 4589.58,-190 4471.42,-190 4471.42,-154 4616.58,-154 4616.58,-190"/>
<text text-anchor="middle" x="4544" y="-167.8" font-family="Times,serif" font-size="14.00">AnnouncementModule</text>
</g>
<!-- AnnouncementModule&#45;&gt;AnnouncementService  -->
<g id="edge1" class="edge">
<title>AnnouncementModule&#45;&gt;AnnouncementService </title>
<path fill="none" stroke="black" stroke-dasharray="5,2" d="M4544,-190.01C4544,-190.01 4544,-219.85 4544,-219.85"/>
<polygon fill="black" stroke="black" points="4540.5,-219.85 4544,-229.85 4547.5,-219.85 4540.5,-219.85"/>
</g>
<!-- AppModule -->
<g id="node10" class="node">
<title>AppModule</title>
<polygon fill="#8dd3c7" stroke="black" points="1793.66,-266 1790.66,-270 1769.66,-270 1766.66,-266 1710.34,-266 1710.34,-230 1793.66,-230 1793.66,-266"/>
<text text-anchor="middle" x="1752" y="-243.8" font-family="Times,serif" font-size="14.00">AppModule</text>
</g>
<!-- AnnouncementModule&#45;&gt;AppModule -->
<g id="edge3" class="edge">
<title>AnnouncementModule&#45;&gt;AppModule</title>
<path fill="none" stroke="black" d="M4471.33,-172C4466.94,-172 4464.25,-172 4464.25,-172 4464.25,-172 4464.25,-259 4464.25,-259 4464.25,-259 1803.79,-259 1803.79,-259"/>
<polygon fill="black" stroke="black" points="1803.79,-255.5 1793.79,-259 1803.79,-262.5 1803.79,-255.5"/>
</g>
<!-- AnnouncementService -->
<g id="node3" class="node">
<title>AnnouncementService</title>
<ellipse fill="#fdb462" stroke="black" cx="4557" cy="-104" rx="98.98" ry="18"/>
<text text-anchor="middle" x="4557" y="-99.8" font-family="Times,serif" font-size="14.00">AnnouncementService</text>
</g>
<!-- AnnouncementService&#45;&gt;AnnouncementModule -->
<g id="edge2" class="edge">
<title>AnnouncementService&#45;&gt;AnnouncementModule</title>
<path fill="none" stroke="black" d="M4544,-121.87C4544,-121.87 4544,-143.54 4544,-143.54"/>
<polygon fill="black" stroke="black" points="4540.5,-143.54 4544,-153.54 4547.5,-143.54 4540.5,-143.54"/>
</g>
<!-- AppointmentModule -->
<g id="node4" class="node">
<title>AppointmentModule</title>
<polygon fill="#8dd3c7" stroke="black" points="1843.93,-122 1840.93,-126 1819.93,-126 1816.93,-122 1710.07,-122 1710.07,-86 1843.93,-86 1843.93,-122"/>
<text text-anchor="middle" x="1777" y="-99.8" font-family="Times,serif" font-size="14.00">AppointmentModule</text>
</g>
<!-- AppointmentModule&#45;&gt;AppModule -->
<g id="edge4" class="edge">
<title>AppointmentModule&#45;&gt;AppModule</title>
<path fill="none" stroke="black" d="M1820.71,-122.07C1820.71,-158.65 1820.71,-238 1820.71,-238 1820.71,-238 1803.95,-238 1803.95,-238"/>
<polygon fill="black" stroke="black" points="1803.95,-234.5 1793.95,-238 1803.95,-241.5 1803.95,-234.5"/>
</g>
<!-- AppointmentService  -->
<g id="node15" class="node">
<title>AppointmentService </title>
<polygon fill="#fb8072" stroke="black" points="2546.86,-190 2411.14,-190 2411.14,-154 2546.86,-154 2546.86,-190"/>
<text text-anchor="middle" x="2479" y="-167.8" font-family="Times,serif" font-size="14.00">AppointmentService </text>
</g>
<!-- AppointmentModule&#45;&gt;AppointmentService  -->
<g id="edge14" class="edge">
<title>AppointmentModule&#45;&gt;AppointmentService </title>
<path fill="none" stroke="black" stroke-dasharray="5,2" d="M1809.21,-122.18C1809.21,-135.04 1809.21,-150 1809.21,-150 1809.21,-150 2479,-150 2479,-150 2479,-150 2479,-150.38 2479,-150.38"/>
<polygon fill="black" stroke="black" points="2475.5,-143.83 2479,-153.83 2482.5,-143.83 2475.5,-143.83"/>
</g>
<!-- AuthModule -->
<g id="node5" class="node">
<title>AuthModule</title>
<polygon fill="#8dd3c7" stroke="black" points="1688.55,-190 1685.55,-194 1664.55,-194 1661.55,-190 1601.45,-190 1601.45,-154 1688.55,-154 1688.55,-190"/>
<text text-anchor="middle" x="1645" y="-167.8" font-family="Times,serif" font-size="14.00">AuthModule</text>
</g>
<!-- AuthModule&#45;&gt;AppModule -->
<g id="edge5" class="edge">
<title>AuthModule&#45;&gt;AppModule</title>
<path fill="none" stroke="black" d="M1645,-190.13C1645,-210.57 1645,-241 1645,-241 1645,-241 1700.32,-241 1700.32,-241"/>
<polygon fill="black" stroke="black" points="1700.32,-244.5 1710.32,-241 1700.32,-237.5 1700.32,-244.5"/>
</g>
<!-- AuthService  -->
<g id="node17" class="node">
<title>AuthService </title>
<polygon fill="#fb8072" stroke="black" points="499.98,-266 410.02,-266 410.02,-230 499.98,-230 499.98,-266"/>
<text text-anchor="middle" x="455" y="-243.8" font-family="Times,serif" font-size="14.00">AuthService </text>
</g>
<!-- AuthModule&#45;&gt;AuthService  -->
<g id="edge17" class="edge">
<title>AuthModule&#45;&gt;AuthService </title>
<path fill="none" stroke="black" stroke-dasharray="5,2" d="M1601.24,-178C1386.54,-178 455,-178 455,-178 455,-178 455,-219.97 455,-219.97"/>
<polygon fill="black" stroke="black" points="451.5,-219.97 455,-229.97 458.5,-219.97 451.5,-219.97"/>
</g>
<!-- EmailService  -->
<g id="node18" class="node">
<title>EmailService </title>
<polygon fill="#fb8072" stroke="black" points="392.42,-266 297.58,-266 297.58,-230 392.42,-230 392.42,-266"/>
<text text-anchor="middle" x="345" y="-243.8" font-family="Times,serif" font-size="14.00">EmailService </text>
</g>
<!-- AuthModule&#45;&gt;EmailService  -->
<g id="edge18" class="edge">
<title>AuthModule&#45;&gt;EmailService </title>
<path fill="none" stroke="black" stroke-dasharray="5,2" d="M1601.37,-174C1375.05,-174 345,-174 345,-174 345,-174 345,-219.71 345,-219.71"/>
<polygon fill="black" stroke="black" points="341.5,-219.71 345,-229.71 348.5,-219.71 341.5,-219.71"/>
</g>
<!-- JwtStrategy  -->
<g id="node19" class="node">
<title>JwtStrategy </title>
<polygon fill="#fb8072" stroke="black" points="709.6,-266 624.4,-266 624.4,-230 709.6,-230 709.6,-266"/>
<text text-anchor="middle" x="667" y="-243.8" font-family="Times,serif" font-size="14.00">JwtStrategy </text>
</g>
<!-- AuthModule&#45;&gt;JwtStrategy  -->
<g id="edge19" class="edge">
<title>AuthModule&#45;&gt;JwtStrategy </title>
<path fill="none" stroke="black" stroke-dasharray="5,2" d="M1601.4,-186C1411.61,-186 667,-186 667,-186 667,-186 667,-219.73 667,-219.73"/>
<polygon fill="black" stroke="black" points="663.5,-219.73 667,-229.73 670.5,-219.73 663.5,-219.73"/>
</g>
<!-- OTPService  -->
<g id="node20" class="node">
<title>OTPService </title>
<polygon fill="#fb8072" stroke="black" points="605.92,-266 518.08,-266 518.08,-230 605.92,-230 605.92,-266"/>
<text text-anchor="middle" x="562" y="-243.8" font-family="Times,serif" font-size="14.00">OTPService </text>
</g>
<!-- AuthModule&#45;&gt;OTPService  -->
<g id="edge20" class="edge">
<title>AuthModule&#45;&gt;OTPService </title>
<path fill="none" stroke="black" stroke-dasharray="5,2" d="M1601.2,-182C1398.59,-182 562,-182 562,-182 562,-182 562,-219.97 562,-219.97"/>
<polygon fill="black" stroke="black" points="558.5,-219.97 562,-229.97 565.5,-219.97 558.5,-219.97"/>
</g>
<!-- DocumentApplicationsModule -->
<g id="node6" class="node">
<title>DocumentApplicationsModule</title>
<polygon fill="#8dd3c7" stroke="black" points="2050.91,-122 2047.91,-126 2026.91,-126 2023.91,-122 1861.09,-122 1861.09,-86 2050.91,-86 2050.91,-122"/>
<text text-anchor="middle" x="1956" y="-99.8" font-family="Times,serif" font-size="14.00">DocumentApplicationsModule</text>
</g>
<!-- DocumentApplicationsModule&#45;&gt;AppModule -->
<g id="edge6" class="edge">
<title>DocumentApplicationsModule&#45;&gt;AppModule</title>
<path fill="none" stroke="black" d="M2019.14,-122.14C2019.14,-160.23 2019.14,-245 2019.14,-245 2019.14,-245 1803.74,-245 1803.74,-245"/>
<polygon fill="black" stroke="black" points="1803.74,-241.5 1793.74,-245 1803.74,-248.5 1803.74,-241.5"/>
</g>
<!-- DocumentApplicationsService  -->
<g id="node23" class="node">
<title>DocumentApplicationsService </title>
<polygon fill="#fb8072" stroke="black" points="3321.84,-190 3130.16,-190 3130.16,-154 3321.84,-154 3321.84,-190"/>
<text text-anchor="middle" x="3226" y="-167.8" font-family="Times,serif" font-size="14.00">DocumentApplicationsService </text>
</g>
<!-- DocumentApplicationsModule&#45;&gt;DocumentApplicationsService  -->
<g id="edge25" class="edge">
<title>DocumentApplicationsModule&#45;&gt;DocumentApplicationsService </title>
<path fill="none" stroke="black" stroke-dasharray="5,2" d="M1924.43,-122.14C1924.43,-128.46 1924.43,-134 1924.43,-134 1924.43,-134 3226,-134 3226,-134 3226,-134 3226,-143.89 3226,-143.89"/>
<polygon fill="black" stroke="black" points="3222.5,-143.89 3226,-153.89 3229.5,-143.89 3222.5,-143.89"/>
</g>
<!-- MinioService  -->
<g id="node24" class="node">
<title>MinioService </title>
<polygon fill="#fb8072" stroke="black" points="3111.7,-190 3016.3,-190 3016.3,-154 3111.7,-154 3111.7,-190"/>
<text text-anchor="middle" x="3064" y="-167.8" font-family="Times,serif" font-size="14.00">MinioService </text>
</g>
<!-- DocumentApplicationsModule&#45;&gt;MinioService  -->
<g id="edge26" class="edge">
<title>DocumentApplicationsModule&#45;&gt;MinioService </title>
<path fill="none" stroke="black" stroke-dasharray="5,2" d="M1892.86,-122.19C1892.86,-130.28 1892.86,-138 1892.86,-138 1892.86,-138 3064,-138 3064,-138 3064,-138 3064,-143.81 3064,-143.81"/>
<polygon fill="black" stroke="black" points="3060.5,-143.81 3064,-153.81 3067.5,-143.81 3060.5,-143.81"/>
</g>
<!-- QueueModule -->
<g id="node7" class="node">
<title>QueueModule</title>
<polygon fill="#8dd3c7" stroke="black" points="2165.09,-122 2162.09,-126 2141.09,-126 2138.09,-122 2068.91,-122 2068.91,-86 2165.09,-86 2165.09,-122"/>
<text text-anchor="middle" x="2117" y="-99.8" font-family="Times,serif" font-size="14.00">QueueModule</text>
</g>
<!-- QueueModule&#45;&gt;AppModule -->
<g id="edge7" class="edge">
<title>QueueModule&#45;&gt;AppModule</title>
<path fill="none" stroke="black" d="M2117,-122.15C2117,-161.67 2117,-252 2117,-252 2117,-252 1803.87,-252 1803.87,-252"/>
<polygon fill="black" stroke="black" points="1803.87,-248.5 1793.87,-252 1803.87,-255.5 1803.87,-248.5"/>
</g>
<!-- QueueGateway  -->
<g id="node27" class="node">
<title>QueueGateway </title>
<polygon fill="#fb8072" stroke="black" points="4135.78,-190 4030.22,-190 4030.22,-154 4135.78,-154 4135.78,-190"/>
<text text-anchor="middle" x="4083" y="-167.8" font-family="Times,serif" font-size="14.00">QueueGateway </text>
</g>
<!-- QueueModule&#45;&gt;QueueGateway  -->
<g id="edge29" class="edge">
<title>QueueModule&#45;&gt;QueueGateway </title>
<path fill="none" stroke="black" stroke-dasharray="5,2" d="M2165.11,-92C2466.61,-92 4083,-92 4083,-92 4083,-92 4083,-143.85 4083,-143.85"/>
<polygon fill="black" stroke="black" points="4079.5,-143.85 4083,-153.85 4086.5,-143.85 4079.5,-143.85"/>
</g>
<!-- QueueSchedulerService  -->
<g id="node28" class="node">
<title>QueueSchedulerService </title>
<polygon fill="#fb8072" stroke="black" points="4011.99,-190 3858.01,-190 3858.01,-154 4011.99,-154 4011.99,-190"/>
<text text-anchor="middle" x="3935" y="-167.8" font-family="Times,serif" font-size="14.00">QueueSchedulerService </text>
</g>
<!-- QueueModule&#45;&gt;QueueSchedulerService  -->
<g id="edge30" class="edge">
<title>QueueModule&#45;&gt;QueueSchedulerService </title>
<path fill="none" stroke="black" stroke-dasharray="5,2" d="M2165.16,-98C2453.14,-98 3935,-98 3935,-98 3935,-98 3935,-143.71 3935,-143.71"/>
<polygon fill="black" stroke="black" points="3931.5,-143.71 3935,-153.71 3938.5,-143.71 3931.5,-143.71"/>
</g>
<!-- QueueService  -->
<g id="node29" class="node">
<title>QueueService </title>
<polygon fill="#fb8072" stroke="black" points="3840.01,-190 3741.99,-190 3741.99,-154 3840.01,-154 3840.01,-190"/>
<text text-anchor="middle" x="3791" y="-167.8" font-family="Times,serif" font-size="14.00">QueueService </text>
</g>
<!-- QueueModule&#45;&gt;QueueService  -->
<g id="edge31" class="edge">
<title>QueueModule&#45;&gt;QueueService </title>
<path fill="none" stroke="black" stroke-dasharray="5,2" d="M2165.29,-104C2439.76,-104 3791,-104 3791,-104 3791,-104 3791,-143.78 3791,-143.78"/>
<polygon fill="black" stroke="black" points="3787.5,-143.78 3791,-153.78 3794.5,-143.78 3787.5,-143.78"/>
</g>
<!-- RolesModule -->
<g id="node8" class="node">
<title>RolesModule</title>
<polygon fill="#8dd3c7" stroke="black" points="1692.94,-122 1689.94,-126 1668.94,-126 1665.94,-122 1601.06,-122 1601.06,-86 1692.94,-86 1692.94,-122"/>
<text text-anchor="middle" x="1647" y="-99.8" font-family="Times,serif" font-size="14.00">RolesModule</text>
</g>
<!-- RolesModule&#45;&gt;AuthModule -->
<g id="edge16" class="edge">
<title>RolesModule&#45;&gt;AuthModule</title>
<path fill="none" stroke="black" d="M1623.15,-122.22C1623.15,-122.22 1623.15,-143.73 1623.15,-143.73"/>
<polygon fill="black" stroke="black" points="1619.65,-143.73 1623.15,-153.73 1626.65,-143.73 1619.65,-143.73"/>
</g>
<!-- UsersModule -->
<g id="node9" class="node">
<title>UsersModule</title>
<polygon fill="#8dd3c7" stroke="black" points="1797.92,-190 1794.92,-194 1773.92,-194 1770.92,-190 1706.08,-190 1706.08,-154 1797.92,-154 1797.92,-190"/>
<text text-anchor="middle" x="1752" y="-167.8" font-family="Times,serif" font-size="14.00">UsersModule</text>
</g>
<!-- RolesModule&#45;&gt;UsersModule -->
<g id="edge36" class="edge">
<title>RolesModule&#45;&gt;UsersModule</title>
<path fill="none" stroke="black" d="M1692.72,-98C1698.13,-98 1701.77,-98 1701.77,-98 1701.77,-98 1701.77,-172 1701.77,-172 1701.77,-172 1702.19,-172 1702.19,-172"/>
<polygon fill="black" stroke="black" points="1696.05,-175.5 1706.05,-172 1696.05,-168.5 1696.05,-175.5"/>
</g>
<!-- RolesModule&#45;&gt;AppModule -->
<g id="edge8" class="edge">
<title>RolesModule&#45;&gt;AppModule</title>
<path fill="none" stroke="black" d="M1692.96,-110C1695.62,-110 1697.24,-110 1697.24,-110 1697.24,-110 1697.24,-236 1697.24,-236 1697.24,-236 1700.22,-236 1700.22,-236"/>
<polygon fill="black" stroke="black" points="1700.22,-239.5 1710.22,-236 1700.22,-232.5 1700.22,-239.5"/>
</g>
<!-- RolesService  -->
<g id="node32" class="node">
<title>RolesService </title>
<polygon fill="#fb8072" stroke="black" points="4417.86,-190 4324.14,-190 4324.14,-154 4417.86,-154 4417.86,-190"/>
<text text-anchor="middle" x="4371" y="-167.8" font-family="Times,serif" font-size="14.00">RolesService </text>
</g>
<!-- RolesModule&#45;&gt;RolesService  -->
<g id="edge34" class="edge">
<title>RolesModule&#45;&gt;RolesService </title>
<path fill="none" stroke="black" stroke-dasharray="5,2" d="M1645.03,-122.17C1645.03,-124.45 1645.03,-126 1645.03,-126 1645.03,-126 4371,-126 4371,-126 4371,-126 4371,-143.82 4371,-143.82"/>
<polygon fill="black" stroke="black" points="4367.5,-143.82 4371,-153.82 4374.5,-143.82 4367.5,-143.82"/>
</g>
<!-- UsersModule&#45;&gt;AppModule -->
<g id="edge9" class="edge">
<title>UsersModule&#45;&gt;AppModule</title>
<path fill="none" stroke="black" d="M1772.91,-190.01C1772.91,-190.01 1772.91,-219.85 1772.91,-219.85"/>
<polygon fill="black" stroke="black" points="1769.41,-219.85 1772.91,-229.85 1776.41,-219.85 1769.41,-219.85"/>
</g>
<!-- UsersService  -->
<g id="node34" class="node">
<title>UsersService </title>
<polygon fill="#fb8072" stroke="black" points="991.85,-266 898.15,-266 898.15,-230 991.85,-230 991.85,-266"/>
<text text-anchor="middle" x="945" y="-243.8" font-family="Times,serif" font-size="14.00">UsersService </text>
</g>
<!-- UsersModule&#45;&gt;UsersService  -->
<g id="edge37" class="edge">
<title>UsersModule&#45;&gt;UsersService </title>
<path fill="none" stroke="black" stroke-dasharray="5,2" d="M1752,-190.04C1752,-202.56 1752,-217 1752,-217 1752,-217 945,-217 945,-217 945,-217 945,-219.97 945,-219.97"/>
<polygon fill="black" stroke="black" points="941.5,-219.97 945,-229.97 948.5,-219.97 941.5,-219.97"/>
</g>
<!-- AppService -->
<g id="node11" class="node">
<title>AppService</title>
<ellipse fill="#fdb462" stroke="black" cx="1089" cy="-104" rx="56.74" ry="18"/>
<text text-anchor="middle" x="1089" y="-99.8" font-family="Times,serif" font-size="14.00">AppService</text>
</g>
<!-- AppService&#45;&gt;AppModule -->
<g id="edge10" class="edge">
<title>AppService&#45;&gt;AppModule</title>
<path fill="none" stroke="black" d="M1089,-122.01C1089,-163.25 1089,-261 1089,-261 1089,-261 1700.28,-261 1700.28,-261"/>
<polygon fill="black" stroke="black" points="1700.28,-264.5 1710.28,-261 1700.28,-257.5 1700.28,-264.5"/>
</g>
<!-- EmailService -->
<g id="node12" class="node">
<title>EmailService</title>
<ellipse fill="#fdb462" stroke="black" cx="1380" cy="-104" rx="63.12" ry="18"/>
<text text-anchor="middle" x="1380" y="-99.8" font-family="Times,serif" font-size="14.00">EmailService</text>
</g>
<!-- EmailService&#45;&gt;AuthModule -->
<g id="edge22" class="edge">
<title>EmailService&#45;&gt;AuthModule</title>
<path fill="none" stroke="black" d="M1401.02,-121.09C1401.02,-138.2 1401.02,-162 1401.02,-162 1401.02,-162 1591.38,-162 1591.38,-162"/>
<polygon fill="black" stroke="black" points="1591.38,-165.5 1601.38,-162 1591.38,-158.5 1591.38,-165.5"/>
</g>
<!-- EmailService&#45;&gt;AppModule -->
<g id="edge11" class="edge">
<title>EmailService&#45;&gt;AppModule</title>
<path fill="none" stroke="black" d="M1358.98,-121.15C1358.98,-159.93 1358.98,-251 1358.98,-251 1358.98,-251 1700.31,-251 1700.31,-251"/>
<polygon fill="black" stroke="black" points="1700.31,-254.5 1710.31,-251 1700.31,-247.5 1700.31,-254.5"/>
</g>
<!-- LoggerService -->
<g id="node13" class="node">
<title>LoggerService</title>
<ellipse fill="#fdb462" stroke="black" cx="1231" cy="-104" rx="67.76" ry="18"/>
<text text-anchor="middle" x="1231" y="-99.8" font-family="Times,serif" font-size="14.00">LoggerService</text>
</g>
<!-- LoggerService&#45;&gt;AppModule -->
<g id="edge12" class="edge">
<title>LoggerService&#45;&gt;AppModule</title>
<path fill="none" stroke="black" d="M1231,-122.03C1231,-162.3 1231,-256 1231,-256 1231,-256 1700.25,-256 1700.25,-256"/>
<polygon fill="black" stroke="black" points="1700.25,-259.5 1710.25,-256 1700.25,-252.5 1700.25,-259.5"/>
</g>
<!-- OTPService -->
<g id="node14" class="node">
<title>OTPService</title>
<ellipse fill="#fdb462" stroke="black" cx="1519" cy="-104" rx="58.46" ry="18"/>
<text text-anchor="middle" x="1519" y="-99.8" font-family="Times,serif" font-size="14.00">OTPService</text>
</g>
<!-- OTPService&#45;&gt;AuthModule -->
<g id="edge24" class="edge">
<title>OTPService&#45;&gt;AuthModule</title>
<path fill="none" stroke="black" d="M1538.41,-121.09C1538.41,-136.91 1538.41,-158 1538.41,-158 1538.41,-158 1591.34,-158 1591.34,-158"/>
<polygon fill="black" stroke="black" points="1591.34,-161.5 1601.34,-158 1591.34,-154.5 1591.34,-161.5"/>
</g>
<!-- OTPService&#45;&gt;AppModule -->
<g id="edge13" class="edge">
<title>OTPService&#45;&gt;AppModule</title>
<path fill="none" stroke="black" d="M1499.59,-121.13C1499.59,-158.9 1499.59,-246 1499.59,-246 1499.59,-246 1700.32,-246 1700.32,-246"/>
<polygon fill="black" stroke="black" points="1700.32,-249.5 1710.32,-246 1700.32,-242.5 1700.32,-249.5"/>
</g>
<!-- AppointmentService -->
<g id="node16" class="node">
<title>AppointmentService</title>
<ellipse fill="#fdb462" stroke="black" cx="2296" cy="-172" rx="90.91" ry="18"/>
<text text-anchor="middle" x="2296" y="-167.8" font-family="Times,serif" font-size="14.00">AppointmentService</text>
</g>
<!-- AppointmentService&#45;&gt;AppointmentModule -->
<g id="edge15" class="edge">
<title>AppointmentService&#45;&gt;AppointmentModule</title>
<path fill="none" stroke="black" d="M2204.92,-172C2069.86,-172 1832.22,-172 1832.22,-172 1832.22,-172 1832.22,-132.22 1832.22,-132.22"/>
<polygon fill="black" stroke="black" points="1835.72,-132.22 1832.22,-122.22 1828.72,-132.22 1835.72,-132.22"/>
</g>
<!-- AuthService -->
<g id="node21" class="node">
<title>AuthService</title>
<ellipse fill="#fdb462" stroke="black" cx="215" cy="-248" rx="59.11" ry="18"/>
<text text-anchor="middle" x="215" y="-243.8" font-family="Times,serif" font-size="14.00">AuthService</text>
</g>
<!-- AuthService&#45;&gt;AuthModule -->
<g id="edge21" class="edge">
<title>AuthService&#45;&gt;AuthModule</title>
<path fill="none" stroke="black" d="M215,-229.91C215,-206.87 215,-170 215,-170 215,-170 1591.42,-170 1591.42,-170"/>
<polygon fill="black" stroke="black" points="1591.42,-173.5 1601.42,-170 1591.42,-166.5 1591.42,-173.5"/>
</g>
<!-- JwtStrategy -->
<g id="node22" class="node">
<title>JwtStrategy</title>
<ellipse fill="#fdb462" stroke="black" cx="81" cy="-248" rx="56.76" ry="18"/>
<text text-anchor="middle" x="81" y="-243.8" font-family="Times,serif" font-size="14.00">JwtStrategy</text>
</g>
<!-- JwtStrategy&#45;&gt;AuthModule -->
<g id="edge23" class="edge">
<title>JwtStrategy&#45;&gt;AuthModule</title>
<path fill="none" stroke="black" d="M81,-229.8C81,-205.64 81,-166 81,-166 81,-166 1591.13,-166 1591.13,-166"/>
<polygon fill="black" stroke="black" points="1591.13,-169.5 1601.13,-166 1591.13,-162.5 1591.13,-169.5"/>
</g>
<!-- DocumentApplicationsService -->
<g id="node25" class="node">
<title>DocumentApplicationsService</title>
<ellipse fill="#fdb462" stroke="black" cx="2862" cy="-172" rx="129.63" ry="18"/>
<text text-anchor="middle" x="2862" y="-167.8" font-family="Times,serif" font-size="14.00">DocumentApplicationsService</text>
</g>
<!-- DocumentApplicationsService&#45;&gt;DocumentApplicationsModule -->
<g id="edge27" class="edge">
<title>DocumentApplicationsService&#45;&gt;DocumentApplicationsModule</title>
<path fill="none" stroke="black" d="M2862,-153.86C2862,-147.54 2862,-142 2862,-142 2862,-142 1987.57,-142 1987.57,-142 1987.57,-142 1987.57,-132.11 1987.57,-132.11"/>
<polygon fill="black" stroke="black" points="1991.07,-132.11 1987.57,-122.11 1984.07,-132.11 1991.07,-132.11"/>
</g>
<!-- MinioService -->
<g id="node26" class="node">
<title>MinioService</title>
<ellipse fill="#fdb462" stroke="black" cx="2651" cy="-172" rx="63.7" ry="18"/>
<text text-anchor="middle" x="2651" y="-167.8" font-family="Times,serif" font-size="14.00">MinioService</text>
</g>
<!-- MinioService&#45;&gt;DocumentApplicationsModule -->
<g id="edge28" class="edge">
<title>MinioService&#45;&gt;DocumentApplicationsModule</title>
<path fill="none" stroke="black" d="M2651,-153.94C2651,-149.51 2651,-146 2651,-146 2651,-146 1956,-146 1956,-146 1956,-146 1956,-132.06 1956,-132.06"/>
<polygon fill="black" stroke="black" points="1959.5,-132.06 1956,-122.06 1952.5,-132.06 1959.5,-132.06"/>
</g>
<!-- QueueSchedulerService -->
<g id="node30" class="node">
<title>QueueSchedulerService</title>
<ellipse fill="#fdb462" stroke="black" cx="3614" cy="-172" rx="103.61" ry="18"/>
<text text-anchor="middle" x="3614" y="-167.8" font-family="Times,serif" font-size="14.00">QueueSchedulerService</text>
</g>
<!-- QueueSchedulerService&#45;&gt;QueueModule -->
<g id="edge32" class="edge">
<title>QueueSchedulerService&#45;&gt;QueueModule</title>
<path fill="none" stroke="black" d="M3614,-153.73C3614,-135.44 3614,-110 3614,-110 3614,-110 2175.11,-110 2175.11,-110"/>
<polygon fill="black" stroke="black" points="2175.11,-106.5 2165.11,-110 2175.11,-113.5 2175.11,-106.5"/>
</g>
<!-- QueueService -->
<g id="node31" class="node">
<title>QueueService</title>
<ellipse fill="#fdb462" stroke="black" cx="3427" cy="-172" rx="65.39" ry="18"/>
<text text-anchor="middle" x="3427" y="-167.8" font-family="Times,serif" font-size="14.00">QueueService</text>
</g>
<!-- QueueService&#45;&gt;QueueModule -->
<g id="edge33" class="edge">
<title>QueueService&#45;&gt;QueueModule</title>
<path fill="none" stroke="black" d="M3427,-153.97C3427,-137.6 3427,-116 3427,-116 3427,-116 2175.18,-116 2175.18,-116"/>
<polygon fill="black" stroke="black" points="2175.18,-112.5 2165.18,-116 2175.18,-119.5 2175.18,-112.5"/>
</g>
<!-- RolesService -->
<g id="node33" class="node">
<title>RolesService</title>
<ellipse fill="#fdb462" stroke="black" cx="4238" cy="-172" rx="61.97" ry="18"/>
<text text-anchor="middle" x="4238" y="-167.8" font-family="Times,serif" font-size="14.00">RolesService</text>
</g>
<!-- RolesService&#45;&gt;RolesModule -->
<g id="edge35" class="edge">
<title>RolesService&#45;&gt;RolesModule</title>
<path fill="none" stroke="black" d="M4238,-153.94C4238,-142.56 4238,-130 4238,-130 4238,-130 1666.9,-130 1666.9,-130 1666.9,-130 1666.9,-129.21 1666.9,-129.21"/>
<polygon fill="black" stroke="black" points="1670.4,-132.06 1666.9,-122.06 1663.4,-132.06 1670.4,-132.06"/>
</g>
<!-- UsersService -->
<g id="node35" class="node">
<title>UsersService</title>
<ellipse fill="#fdb462" stroke="black" cx="812" cy="-248" rx="61.95" ry="18"/>
<text text-anchor="middle" x="812" y="-243.8" font-family="Times,serif" font-size="14.00">UsersService</text>
</g>
<!-- UsersService&#45;&gt;UsersModule -->
<g id="edge38" class="edge">
<title>UsersService&#45;&gt;UsersModule</title>
<path fill="none" stroke="black" d="M812,-229.85C812,-217.73 812,-204 812,-204 812,-204 1731.09,-204 1731.09,-204 1731.09,-204 1731.09,-200.24 1731.09,-200.24"/>
<polygon fill="black" stroke="black" points="1734.59,-200.24 1731.09,-190.24 1727.59,-200.24 1734.59,-200.24"/>
</g>
</g>
</svg>
