<?xml version="1.0" encoding="UTF-8" standalone="no"?>
<!DOCTYPE svg PUBLIC "-//W3C//DTD SVG 1.1//EN"
 "http://www.w3.org/Graphics/SVG/1.1/DTD/svg11.dtd">
<!-- Generated by graphviz version 2.47.0 (20210316.0004)
 -->
<!-- Title: dependencies Pages: 1 -->
<svg width="3713pt" height="298pt"
 viewBox="0.00 0.00 3713.00 298.00" xmlns="http://www.w3.org/2000/svg" xmlns:xlink="http://www.w3.org/1999/xlink">
<g id="graph0" class="graph" transform="scale(1 1) rotate(0) translate(4 294)">
<title>dependencies</title>
<polygon fill="white" stroke="transparent" points="-4,4 -4,-294 3709,-294 3709,4 -4,4"/>
<text text-anchor="start" x="1831.51" y="-42.4" font-family="Times-12" font-weight="bold" font-size="14.00">Legend</text>
<polygon fill="#ffffb3" stroke="transparent" points="1618.5,-10 1618.5,-30 1638.5,-30 1638.5,-10 1618.5,-10"/>
<text text-anchor="start" x="1642.13" y="-15.4" font-family="Times-12" font-size="14.00"> &#160;Declarations</text>
<polygon fill="#8dd3c7" stroke="transparent" points="1731.5,-10 1731.5,-30 1751.5,-30 1751.5,-10 1731.5,-10"/>
<text text-anchor="start" x="1755.23" y="-15.4" font-family="Times-12" font-size="14.00"> &#160;Module</text>
<polygon fill="#80b1d3" stroke="transparent" points="1817.5,-10 1817.5,-30 1837.5,-30 1837.5,-10 1817.5,-10"/>
<text text-anchor="start" x="1841.28" y="-15.4" font-family="Times-12" font-size="14.00"> &#160;Bootstrap</text>
<polygon fill="#fdb462" stroke="transparent" points="1914.5,-10 1914.5,-30 1934.5,-30 1934.5,-10 1914.5,-10"/>
<text text-anchor="start" x="1938.17" y="-15.4" font-family="Times-12" font-size="14.00"> &#160;Providers</text>
<polygon fill="#fb8072" stroke="transparent" points="2010.5,-10 2010.5,-30 2030.5,-30 2030.5,-10 2010.5,-10"/>
<text text-anchor="start" x="2034.23" y="-15.4" font-family="Times-12" font-size="14.00"> &#160;Exports</text>
<g id="clust1" class="cluster">
<title>cluster_AnnouncementModule</title>
<polygon fill="none" stroke="black" stroke-dasharray="1,5" points="3467,-70 3467,-282 3697,-282 3697,-70 3467,-70"/>
</g>
<g id="clust4" class="cluster">
<title>cluster_AnnouncementModule_exports</title>
<polygon fill="none" stroke="black" points="3487,-222 3487,-274 3651,-274 3651,-222 3487,-222"/>
</g>
<g id="clust6" class="cluster">
<title>cluster_AnnouncementModule_providers</title>
<polygon fill="none" stroke="black" points="3475,-78 3475,-130 3689,-130 3689,-78 3475,-78"/>
</g>
<g id="clust7" class="cluster">
<title>cluster_AppModule</title>
<polygon fill="none" stroke="black" stroke-dasharray="1,5" points="798,-70 798,-274 1604,-274 1604,-70 798,-70"/>
</g>
<g id="clust9" class="cluster">
<title>cluster_AppModule_imports</title>
<polygon fill="none" stroke="black" points="806,-78 806,-198 1386,-198 1386,-78 806,-78"/>
</g>
<g id="clust12" class="cluster">
<title>cluster_AppModule_providers</title>
<polygon fill="none" stroke="black" points="1394,-146 1394,-198 1524,-198 1524,-146 1394,-146"/>
</g>
<g id="clust13" class="cluster">
<title>cluster_AppointmentModule</title>
<polygon fill="none" stroke="black" stroke-dasharray="1,5" points="1612,-138 1612,-206 1986,-206 1986,-138 1612,-138"/>
</g>
<g id="clust16" class="cluster">
<title>cluster_AppointmentModule_exports</title>
<polygon fill="none" stroke="black" points="1826,-146 1826,-198 1978,-198 1978,-146 1826,-146"/>
</g>
<g id="clust18" class="cluster">
<title>cluster_AppointmentModule_providers</title>
<polygon fill="none" stroke="black" points="1620,-146 1620,-198 1818,-198 1818,-146 1620,-146"/>
</g>
<g id="clust19" class="cluster">
<title>cluster_AuthModule</title>
<polygon fill="none" stroke="black" stroke-dasharray="1,5" points="8,-214 8,-282 508,-282 508,-214 8,-214"/>
</g>
<g id="clust22" class="cluster">
<title>cluster_AuthModule_exports</title>
<polygon fill="none" stroke="black" points="290,-222 290,-274 500,-274 500,-222 290,-222"/>
</g>
<g id="clust24" class="cluster">
<title>cluster_AuthModule_providers</title>
<polygon fill="none" stroke="black" points="16,-222 16,-274 282,-274 282,-222 16,-222"/>
</g>
<g id="clust25" class="cluster">
<title>cluster_DocumentApplicationsModule</title>
<polygon fill="none" stroke="black" stroke-dasharray="1,5" points="1994,-138 1994,-206 2761,-206 2761,-138 1994,-138"/>
</g>
<g id="clust28" class="cluster">
<title>cluster_DocumentApplicationsModule_exports</title>
<polygon fill="none" stroke="black" points="2431,-146 2431,-198 2753,-198 2753,-146 2431,-146"/>
</g>
<g id="clust30" class="cluster">
<title>cluster_DocumentApplicationsModule_providers</title>
<polygon fill="none" stroke="black" points="2002,-146 2002,-198 2423,-198 2423,-146 2002,-146"/>
</g>
<g id="clust31" class="cluster">
<title>cluster_QueueModule</title>
<polygon fill="none" stroke="black" stroke-dasharray="1,5" points="2769,-138 2769,-206 3177,-206 3177,-138 2769,-138"/>
</g>
<g id="clust34" class="cluster">
<title>cluster_QueueModule_exports</title>
<polygon fill="none" stroke="black" points="2931,-146 2931,-198 3169,-198 3169,-146 2931,-146"/>
</g>
<g id="clust36" class="cluster">
<title>cluster_QueueModule_providers</title>
<polygon fill="none" stroke="black" points="2777,-146 2777,-198 2923,-198 2923,-146 2777,-146"/>
</g>
<g id="clust37" class="cluster">
<title>cluster_RolesModule</title>
<polygon fill="none" stroke="black" stroke-dasharray="1,5" points="3185,-138 3185,-206 3459,-206 3459,-138 3185,-138"/>
</g>
<g id="clust40" class="cluster">
<title>cluster_RolesModule_exports</title>
<polygon fill="none" stroke="black" points="3341,-146 3341,-198 3451,-198 3451,-146 3341,-146"/>
</g>
<g id="clust42" class="cluster">
<title>cluster_RolesModule_providers</title>
<polygon fill="none" stroke="black" points="3193,-146 3193,-198 3333,-198 3333,-146 3193,-146"/>
</g>
<g id="clust43" class="cluster">
<title>cluster_UsersModule</title>
<polygon fill="none" stroke="black" stroke-dasharray="1,5" points="516,-214 516,-282 790,-282 790,-214 516,-214"/>
</g>
<g id="clust46" class="cluster">
<title>cluster_UsersModule_exports</title>
<polygon fill="none" stroke="black" points="672,-222 672,-274 782,-274 782,-222 672,-222"/>
</g>
<g id="clust48" class="cluster">
<title>cluster_UsersModule_providers</title>
<polygon fill="none" stroke="black" points="524,-222 524,-274 664,-274 664,-222 524,-222"/>
</g>
<!-- AnnouncementService  -->
<g id="node1" class="node">
<title>AnnouncementService </title>
<polygon fill="#fb8072" stroke="black" points="3642.51,-266 3495.49,-266 3495.49,-230 3642.51,-230 3642.51,-266"/>
<text text-anchor="middle" x="3569" y="-243.8" font-family="Times,serif" font-size="14.00">AnnouncementService </text>
</g>
<!-- AnnouncementModule -->
<g id="node2" class="node">
<title>AnnouncementModule</title>
<polygon fill="#8dd3c7" stroke="black" points="3641.58,-190 3638.58,-194 3617.58,-194 3614.58,-190 3496.42,-190 3496.42,-154 3641.58,-154 3641.58,-190"/>
<text text-anchor="middle" x="3569" y="-167.8" font-family="Times,serif" font-size="14.00">AnnouncementModule</text>
</g>
<!-- AnnouncementModule&#45;&gt;AnnouncementService  -->
<g id="edge1" class="edge">
<title>AnnouncementModule&#45;&gt;AnnouncementService </title>
<path fill="none" stroke="black" stroke-dasharray="5,2" d="M3569,-190.01C3569,-190.01 3569,-219.85 3569,-219.85"/>
<polygon fill="black" stroke="black" points="3565.5,-219.85 3569,-229.85 3572.5,-219.85 3565.5,-219.85"/>
</g>
<!-- AppModule -->
<g id="node10" class="node">
<title>AppModule</title>
<polygon fill="#8dd3c7" stroke="black" points="1585.66,-266 1582.66,-270 1561.66,-270 1558.66,-266 1502.34,-266 1502.34,-230 1585.66,-230 1585.66,-266"/>
<text text-anchor="middle" x="1544" y="-243.8" font-family="Times,serif" font-size="14.00">AppModule</text>
</g>
<!-- AnnouncementModule&#45;&gt;AppModule -->
<g id="edge3" class="edge">
<title>AnnouncementModule&#45;&gt;AppModule</title>
<path fill="none" stroke="black" d="M3496.33,-172C3491.94,-172 3489.25,-172 3489.25,-172 3489.25,-172 3489.25,-248 3489.25,-248 3489.25,-248 1595.98,-248 1595.98,-248"/>
<polygon fill="black" stroke="black" points="1595.98,-244.5 1585.98,-248 1595.98,-251.5 1595.98,-244.5"/>
</g>
<!-- AnnouncementService -->
<g id="node3" class="node">
<title>AnnouncementService</title>
<ellipse fill="#fdb462" stroke="black" cx="3582" cy="-104" rx="98.98" ry="18"/>
<text text-anchor="middle" x="3582" y="-99.8" font-family="Times,serif" font-size="14.00">AnnouncementService</text>
</g>
<!-- AnnouncementService&#45;&gt;AnnouncementModule -->
<g id="edge2" class="edge">
<title>AnnouncementService&#45;&gt;AnnouncementModule</title>
<path fill="none" stroke="black" d="M3569,-121.87C3569,-121.87 3569,-143.54 3569,-143.54"/>
<polygon fill="black" stroke="black" points="3565.5,-143.54 3569,-153.54 3572.5,-143.54 3565.5,-143.54"/>
</g>
<!-- AppointmentModule -->
<g id="node4" class="node">
<title>AppointmentModule</title>
<polygon fill="#8dd3c7" stroke="black" points="1056.93,-122 1053.93,-126 1032.93,-126 1029.93,-122 923.07,-122 923.07,-86 1056.93,-86 1056.93,-122"/>
<text text-anchor="middle" x="990" y="-99.8" font-family="Times,serif" font-size="14.00">AppointmentModule</text>
</g>
<!-- AppointmentModule&#45;&gt;AppModule -->
<g id="edge4" class="edge">
<title>AppointmentModule&#45;&gt;AppModule</title>
<path fill="none" stroke="black" d="M1045.22,-122.02C1045.22,-159.83 1045.22,-244 1045.22,-244 1045.22,-244 1492.33,-244 1492.33,-244"/>
<polygon fill="black" stroke="black" points="1492.33,-247.5 1502.33,-244 1492.33,-240.5 1492.33,-247.5"/>
</g>
<!-- AppointmentService  -->
<g id="node12" class="node">
<title>AppointmentService </title>
<polygon fill="#fb8072" stroke="black" points="1969.86,-190 1834.14,-190 1834.14,-154 1969.86,-154 1969.86,-190"/>
<text text-anchor="middle" x="1902" y="-167.8" font-family="Times,serif" font-size="14.00">AppointmentService </text>
</g>
<!-- AppointmentModule&#45;&gt;AppointmentService  -->
<g id="edge11" class="edge">
<title>AppointmentModule&#45;&gt;AppointmentService </title>
<path fill="none" stroke="black" stroke-dasharray="5,2" d="M1022.21,-122.49C1022.21,-134.14 1022.21,-147 1022.21,-147 1022.21,-147 1902,-147 1902,-147 1902,-147 1902,-147.68 1902,-147.68"/>
<polygon fill="black" stroke="black" points="1898.5,-143.83 1902,-153.83 1905.5,-143.83 1898.5,-143.83"/>
</g>
<!-- AuthModule -->
<g id="node5" class="node">
<title>AuthModule</title>
<polygon fill="#8dd3c7" stroke="black" points="901.55,-190 898.55,-194 877.55,-194 874.55,-190 814.45,-190 814.45,-154 901.55,-154 901.55,-190"/>
<text text-anchor="middle" x="858" y="-167.8" font-family="Times,serif" font-size="14.00">AuthModule</text>
</g>
<!-- AuthModule&#45;&gt;AppModule -->
<g id="edge5" class="edge">
<title>AuthModule&#45;&gt;AppModule</title>
<path fill="none" stroke="black" d="M858,-190.03C858,-214.98 858,-257 858,-257 858,-257 1492.12,-257 1492.12,-257"/>
<polygon fill="black" stroke="black" points="1492.12,-260.5 1502.12,-257 1492.12,-253.5 1492.12,-260.5"/>
</g>
<!-- AuthService  -->
<g id="node14" class="node">
<title>AuthService </title>
<polygon fill="#fb8072" stroke="black" points="491.98,-266 402.02,-266 402.02,-230 491.98,-230 491.98,-266"/>
<text text-anchor="middle" x="447" y="-243.8" font-family="Times,serif" font-size="14.00">AuthService </text>
</g>
<!-- AuthModule&#45;&gt;AuthService  -->
<g id="edge14" class="edge">
<title>AuthModule&#45;&gt;AuthService </title>
<path fill="none" stroke="black" stroke-dasharray="5,2" d="M814.4,-183C708.63,-183 447,-183 447,-183 447,-183 447,-219.89 447,-219.89"/>
<polygon fill="black" stroke="black" points="443.5,-219.89 447,-229.89 450.5,-219.89 443.5,-219.89"/>
</g>
<!-- JwtStrategy  -->
<g id="node15" class="node">
<title>JwtStrategy </title>
<polygon fill="#fb8072" stroke="black" points="383.6,-266 298.4,-266 298.4,-230 383.6,-230 383.6,-266"/>
<text text-anchor="middle" x="341" y="-243.8" font-family="Times,serif" font-size="14.00">JwtStrategy </text>
</g>
<!-- AuthModule&#45;&gt;JwtStrategy  -->
<g id="edge15" class="edge">
<title>AuthModule&#45;&gt;JwtStrategy </title>
<path fill="none" stroke="black" stroke-dasharray="5,2" d="M814.37,-176C689.72,-176 341,-176 341,-176 341,-176 341,-219.83 341,-219.83"/>
<polygon fill="black" stroke="black" points="337.5,-219.83 341,-229.83 344.5,-219.83 337.5,-219.83"/>
</g>
<!-- DocumentApplicationsModule -->
<g id="node6" class="node">
<title>DocumentApplicationsModule</title>
<polygon fill="#8dd3c7" stroke="black" points="1263.91,-122 1260.91,-126 1239.91,-126 1236.91,-122 1074.09,-122 1074.09,-86 1263.91,-86 1263.91,-122"/>
<text text-anchor="middle" x="1169" y="-99.8" font-family="Times,serif" font-size="14.00">DocumentApplicationsModule</text>
</g>
<!-- DocumentApplicationsModule&#45;&gt;AppModule -->
<g id="edge6" class="edge">
<title>DocumentApplicationsModule&#45;&gt;AppModule</title>
<path fill="none" stroke="black" d="M1232.14,-122.21C1232.14,-159.06 1232.14,-239 1232.14,-239 1232.14,-239 1492.26,-239 1492.26,-239"/>
<polygon fill="black" stroke="black" points="1492.26,-242.5 1502.26,-239 1492.26,-235.5 1492.26,-242.5"/>
</g>
<!-- DocumentApplicationsService  -->
<g id="node18" class="node">
<title>DocumentApplicationsService </title>
<polygon fill="#fb8072" stroke="black" points="2630.84,-190 2439.16,-190 2439.16,-154 2630.84,-154 2630.84,-190"/>
<text text-anchor="middle" x="2535" y="-167.8" font-family="Times,serif" font-size="14.00">DocumentApplicationsService </text>
</g>
<!-- DocumentApplicationsModule&#45;&gt;DocumentApplicationsService  -->
<g id="edge18" class="edge">
<title>DocumentApplicationsModule&#45;&gt;DocumentApplicationsService </title>
<path fill="none" stroke="black" stroke-dasharray="5,2" d="M1105.86,-122.04C1105.86,-129.75 1105.86,-137 1105.86,-137 1105.86,-137 2535,-137 2535,-137 2535,-137 2535,-143.68 2535,-143.68"/>
<polygon fill="black" stroke="black" points="2531.5,-143.68 2535,-153.68 2538.5,-143.68 2531.5,-143.68"/>
</g>
<!-- MinioService  -->
<g id="node19" class="node">
<title>MinioService </title>
<polygon fill="#fb8072" stroke="black" points="2744.7,-190 2649.3,-190 2649.3,-154 2744.7,-154 2744.7,-190"/>
<text text-anchor="middle" x="2697" y="-167.8" font-family="Times,serif" font-size="14.00">MinioService </text>
</g>
<!-- DocumentApplicationsModule&#45;&gt;MinioService  -->
<g id="edge19" class="edge">
<title>DocumentApplicationsModule&#45;&gt;MinioService </title>
<path fill="none" stroke="black" stroke-dasharray="5,2" d="M1137.43,-122.2C1137.43,-128.03 1137.43,-133 1137.43,-133 1137.43,-133 2697,-133 2697,-133 2697,-133 2697,-143.87 2697,-143.87"/>
<polygon fill="black" stroke="black" points="2693.5,-143.87 2697,-153.87 2700.5,-143.87 2693.5,-143.87"/>
</g>
<!-- QueueModule -->
<g id="node7" class="node">
<title>QueueModule</title>
<polygon fill="#8dd3c7" stroke="black" points="1378.09,-122 1375.09,-126 1354.09,-126 1351.09,-122 1281.91,-122 1281.91,-86 1378.09,-86 1378.09,-122"/>
<text text-anchor="middle" x="1330" y="-99.8" font-family="Times,serif" font-size="14.00">QueueModule</text>
</g>
<!-- QueueModule&#45;&gt;AppModule -->
<g id="edge7" class="edge">
<title>QueueModule&#45;&gt;AppModule</title>
<path fill="none" stroke="black" d="M1330,-122.21C1330,-158.21 1330,-235 1330,-235 1330,-235 1492.23,-235 1492.23,-235"/>
<polygon fill="black" stroke="black" points="1492.23,-238.5 1502.23,-235 1492.23,-231.5 1492.23,-238.5"/>
</g>
<!-- QueueGateway  -->
<g id="node22" class="node">
<title>QueueGateway </title>
<polygon fill="#fb8072" stroke="black" points="3044.78,-190 2939.22,-190 2939.22,-154 3044.78,-154 3044.78,-190"/>
<text text-anchor="middle" x="2992" y="-167.8" font-family="Times,serif" font-size="14.00">QueueGateway </text>
</g>
<!-- QueueModule&#45;&gt;QueueGateway  -->
<g id="edge22" class="edge">
<title>QueueModule&#45;&gt;QueueGateway </title>
<path fill="none" stroke="black" stroke-dasharray="5,2" d="M1378.39,-104C1651.91,-104 2992,-104 2992,-104 2992,-104 2992,-143.78 2992,-143.78"/>
<polygon fill="black" stroke="black" points="2988.5,-143.78 2992,-153.78 2995.5,-143.78 2988.5,-143.78"/>
</g>
<!-- QueueService  -->
<g id="node23" class="node">
<title>QueueService </title>
<polygon fill="#fb8072" stroke="black" points="3161.01,-190 3062.99,-190 3062.99,-154 3161.01,-154 3161.01,-190"/>
<text text-anchor="middle" x="3112" y="-167.8" font-family="Times,serif" font-size="14.00">QueueService </text>
</g>
<!-- QueueModule&#45;&gt;QueueService  -->
<g id="edge23" class="edge">
<title>QueueModule&#45;&gt;QueueService </title>
<path fill="none" stroke="black" stroke-dasharray="5,2" d="M1378.13,-95C1662.62,-95 3112,-95 3112,-95 3112,-95 3112,-143.75 3112,-143.75"/>
<polygon fill="black" stroke="black" points="3108.5,-143.75 3112,-153.75 3115.5,-143.75 3108.5,-143.75"/>
</g>
<!-- RolesModule -->
<g id="node8" class="node">
<title>RolesModule</title>
<polygon fill="#8dd3c7" stroke="black" points="905.94,-122 902.94,-126 881.94,-126 878.94,-122 814.06,-122 814.06,-86 905.94,-86 905.94,-122"/>
<text text-anchor="middle" x="860" y="-99.8" font-family="Times,serif" font-size="14.00">RolesModule</text>
</g>
<!-- RolesModule&#45;&gt;AuthModule -->
<g id="edge13" class="edge">
<title>RolesModule&#45;&gt;AuthModule</title>
<path fill="none" stroke="black" d="M836.15,-122.22C836.15,-122.22 836.15,-143.73 836.15,-143.73"/>
<polygon fill="black" stroke="black" points="832.65,-143.73 836.15,-153.73 839.65,-143.73 832.65,-143.73"/>
</g>
<!-- UsersModule -->
<g id="node9" class="node">
<title>UsersModule</title>
<polygon fill="#8dd3c7" stroke="black" points="1010.92,-190 1007.92,-194 986.92,-194 983.92,-190 919.08,-190 919.08,-154 1010.92,-154 1010.92,-190"/>
<text text-anchor="middle" x="965" y="-167.8" font-family="Times,serif" font-size="14.00">UsersModule</text>
</g>
<!-- RolesModule&#45;&gt;UsersModule -->
<g id="edge27" class="edge">
<title>RolesModule&#45;&gt;UsersModule</title>
<path fill="none" stroke="black" d="M905.72,-98C911.13,-98 914.77,-98 914.77,-98 914.77,-98 914.77,-172 914.77,-172 914.77,-172 915.19,-172 915.19,-172"/>
<polygon fill="black" stroke="black" points="909.05,-175.5 919.05,-172 909.05,-168.5 909.05,-175.5"/>
</g>
<!-- RolesModule&#45;&gt;AppModule -->
<g id="edge8" class="edge">
<title>RolesModule&#45;&gt;AppModule</title>
<path fill="none" stroke="black" d="M905.96,-110C908.62,-110 910.24,-110 910.24,-110 910.24,-110 910.24,-253 910.24,-253 910.24,-253 1491.93,-253 1491.93,-253"/>
<polygon fill="black" stroke="black" points="1491.93,-256.5 1501.93,-253 1491.93,-249.5 1491.93,-256.5"/>
</g>
<!-- RolesService  -->
<g id="node25" class="node">
<title>RolesService </title>
<polygon fill="#fb8072" stroke="black" points="3442.86,-190 3349.14,-190 3349.14,-154 3442.86,-154 3442.86,-190"/>
<text text-anchor="middle" x="3396" y="-167.8" font-family="Times,serif" font-size="14.00">RolesService </text>
</g>
<!-- RolesModule&#45;&gt;RolesService  -->
<g id="edge25" class="edge">
<title>RolesModule&#45;&gt;RolesService </title>
<path fill="none" stroke="black" stroke-dasharray="5,2" d="M858.03,-122.17C858.03,-124.45 858.03,-126 858.03,-126 858.03,-126 3396,-126 3396,-126 3396,-126 3396,-143.82 3396,-143.82"/>
<polygon fill="black" stroke="black" points="3392.5,-143.82 3396,-153.82 3399.5,-143.82 3392.5,-143.82"/>
</g>
<!-- UsersModule&#45;&gt;AppModule -->
<g id="edge9" class="edge">
<title>UsersModule&#45;&gt;AppModule</title>
<path fill="none" stroke="black" d="M987.86,-190.01C987.86,-212.49 987.86,-248 987.86,-248 987.86,-248 1492.2,-248 1492.2,-248"/>
<polygon fill="black" stroke="black" points="1492.2,-251.5 1502.2,-248 1492.2,-244.5 1492.2,-251.5"/>
</g>
<!-- UsersService  -->
<g id="node27" class="node">
<title>UsersService </title>
<polygon fill="#fb8072" stroke="black" points="773.85,-266 680.15,-266 680.15,-230 773.85,-230 773.85,-266"/>
<text text-anchor="middle" x="727" y="-243.8" font-family="Times,serif" font-size="14.00">UsersService </text>
</g>
<!-- UsersModule&#45;&gt;UsersService  -->
<g id="edge28" class="edge">
<title>UsersModule&#45;&gt;UsersService </title>
<path fill="none" stroke="black" stroke-dasharray="5,2" d="M965,-190.21C965,-216.51 965,-262 965,-262 965,-262 783.74,-262 783.74,-262"/>
<polygon fill="black" stroke="black" points="783.74,-258.5 773.74,-262 783.74,-265.5 783.74,-258.5"/>
</g>
<!-- AppService -->
<g id="node11" class="node">
<title>AppService</title>
<ellipse fill="#fdb462" stroke="black" cx="1459" cy="-172" rx="56.74" ry="18"/>
<text text-anchor="middle" x="1459" y="-167.8" font-family="Times,serif" font-size="14.00">AppService</text>
</g>
<!-- AppService&#45;&gt;AppModule -->
<g id="edge10" class="edge">
<title>AppService&#45;&gt;AppModule</title>
<path fill="none" stroke="black" d="M1508.9,-180.72C1508.9,-180.72 1508.9,-219.88 1508.9,-219.88"/>
<polygon fill="black" stroke="black" points="1505.4,-219.88 1508.9,-229.88 1512.4,-219.88 1505.4,-219.88"/>
</g>
<!-- AppointmentService -->
<g id="node13" class="node">
<title>AppointmentService</title>
<ellipse fill="#fdb462" stroke="black" cx="1719" cy="-172" rx="90.91" ry="18"/>
<text text-anchor="middle" x="1719" y="-167.8" font-family="Times,serif" font-size="14.00">AppointmentService</text>
</g>
<!-- AppointmentService&#45;&gt;AppointmentModule -->
<g id="edge12" class="edge">
<title>AppointmentService&#45;&gt;AppointmentModule</title>
<path fill="none" stroke="black" d="M1719,-153.92C1719,-152.15 1719,-151 1719,-151 1719,-151 1033.71,-151 1033.71,-151 1033.71,-151 1033.71,-132.04 1033.71,-132.04"/>
<polygon fill="black" stroke="black" points="1037.21,-132.04 1033.71,-122.04 1030.21,-132.04 1037.21,-132.04"/>
</g>
<!-- AuthService -->
<g id="node16" class="node">
<title>AuthService</title>
<ellipse fill="#fdb462" stroke="black" cx="215" cy="-248" rx="59.11" ry="18"/>
<text text-anchor="middle" x="215" y="-243.8" font-family="Times,serif" font-size="14.00">AuthService</text>
</g>
<!-- AuthService&#45;&gt;AuthModule -->
<g id="edge16" class="edge">
<title>AuthService&#45;&gt;AuthModule</title>
<path fill="none" stroke="black" d="M215,-229.68C215,-206.34 215,-169 215,-169 215,-169 804.31,-169 804.31,-169"/>
<polygon fill="black" stroke="black" points="804.31,-172.5 814.31,-169 804.31,-165.5 804.31,-172.5"/>
</g>
<!-- JwtStrategy -->
<g id="node17" class="node">
<title>JwtStrategy</title>
<ellipse fill="#fdb462" stroke="black" cx="81" cy="-248" rx="56.76" ry="18"/>
<text text-anchor="middle" x="81" y="-243.8" font-family="Times,serif" font-size="14.00">JwtStrategy</text>
</g>
<!-- JwtStrategy&#45;&gt;AuthModule -->
<g id="edge17" class="edge">
<title>JwtStrategy&#45;&gt;AuthModule</title>
<path fill="none" stroke="black" d="M81,-229.76C81,-204.52 81,-162 81,-162 81,-162 804.28,-162 804.28,-162"/>
<polygon fill="black" stroke="black" points="804.28,-165.5 814.28,-162 804.28,-158.5 804.28,-165.5"/>
</g>
<!-- DocumentApplicationsService -->
<g id="node20" class="node">
<title>DocumentApplicationsService</title>
<ellipse fill="#fdb462" stroke="black" cx="2140" cy="-172" rx="129.63" ry="18"/>
<text text-anchor="middle" x="2140" y="-167.8" font-family="Times,serif" font-size="14.00">DocumentApplicationsService</text>
</g>
<!-- DocumentApplicationsService&#45;&gt;DocumentApplicationsModule -->
<g id="edge20" class="edge">
<title>DocumentApplicationsService&#45;&gt;DocumentApplicationsModule</title>
<path fill="none" stroke="black" d="M2140,-153.79C2140,-148.45 2140,-144 2140,-144 2140,-144 1169,-144 1169,-144 1169,-144 1169,-132.13 1169,-132.13"/>
<polygon fill="black" stroke="black" points="1172.5,-132.13 1169,-122.13 1165.5,-132.13 1172.5,-132.13"/>
</g>
<!-- MinioService -->
<g id="node21" class="node">
<title>MinioService</title>
<ellipse fill="#fdb462" stroke="black" cx="2351" cy="-172" rx="63.7" ry="18"/>
<text text-anchor="middle" x="2351" y="-167.8" font-family="Times,serif" font-size="14.00">MinioService</text>
</g>
<!-- MinioService&#45;&gt;DocumentApplicationsModule -->
<g id="edge21" class="edge">
<title>MinioService&#45;&gt;DocumentApplicationsModule</title>
<path fill="none" stroke="black" d="M2351,-153.76C2351,-146.57 2351,-140 2351,-140 2351,-140 1200.57,-140 1200.57,-140 1200.57,-140 1200.57,-132.42 1200.57,-132.42"/>
<polygon fill="black" stroke="black" points="1204.07,-132.42 1200.57,-122.42 1197.07,-132.42 1204.07,-132.42"/>
</g>
<!-- QueueService -->
<g id="node24" class="node">
<title>QueueService</title>
<ellipse fill="#fdb462" stroke="black" cx="2850" cy="-172" rx="65.39" ry="18"/>
<text text-anchor="middle" x="2850" y="-167.8" font-family="Times,serif" font-size="14.00">QueueService</text>
</g>
<!-- QueueService&#45;&gt;QueueModule -->
<g id="edge24" class="edge">
<title>QueueService&#45;&gt;QueueModule</title>
<path fill="none" stroke="black" d="M2850,-153.98C2850,-136.63 2850,-113 2850,-113 2850,-113 1388.43,-113 1388.43,-113"/>
<polygon fill="black" stroke="black" points="1388.43,-109.5 1378.43,-113 1388.43,-116.5 1388.43,-109.5"/>
</g>
<!-- RolesService -->
<g id="node26" class="node">
<title>RolesService</title>
<ellipse fill="#fdb462" stroke="black" cx="3263" cy="-172" rx="61.97" ry="18"/>
<text text-anchor="middle" x="3263" y="-167.8" font-family="Times,serif" font-size="14.00">RolesService</text>
</g>
<!-- RolesService&#45;&gt;RolesModule -->
<g id="edge26" class="edge">
<title>RolesService&#45;&gt;RolesModule</title>
<path fill="none" stroke="black" d="M3263,-153.94C3263,-142.56 3263,-130 3263,-130 3263,-130 879.9,-130 879.9,-130 879.9,-130 879.9,-129.21 879.9,-129.21"/>
<polygon fill="black" stroke="black" points="883.4,-132.06 879.9,-122.06 876.4,-132.06 883.4,-132.06"/>
</g>
<!-- UsersService -->
<g id="node28" class="node">
<title>UsersService</title>
<ellipse fill="#fdb462" stroke="black" cx="594" cy="-248" rx="61.95" ry="18"/>
<text text-anchor="middle" x="594" y="-243.8" font-family="Times,serif" font-size="14.00">UsersService</text>
</g>
<!-- UsersService&#45;&gt;UsersModule -->
<g id="edge29" class="edge">
<title>UsersService&#45;&gt;UsersModule</title>
<path fill="none" stroke="black" d="M594,-229.89C594,-220.1 594,-210 594,-210 594,-210 942.14,-210 942.14,-210 942.14,-210 942.14,-200.11 942.14,-200.11"/>
<polygon fill="black" stroke="black" points="945.64,-200.11 942.14,-190.11 938.64,-200.11 945.64,-200.11"/>
</g>
</g>
</svg>
