<?xml version="1.0" encoding="UTF-8" standalone="no"?>
<!DOCTYPE svg PUBLIC "-//W3C//DTD SVG 1.1//EN"
 "http://www.w3.org/Graphics/SVG/1.1/DTD/svg11.dtd">
<!-- Generated by graphviz version 2.47.0 (20210316.0004)
 -->
<!-- Title: dependencies Pages: 1 -->
<svg width="2786pt" height="374pt"
 viewBox="0.00 0.00 2786.00 374.00" xmlns="http://www.w3.org/2000/svg" xmlns:xlink="http://www.w3.org/1999/xlink">
<g id="graph0" class="graph" transform="scale(1 1) rotate(0) translate(4 370)">
<title>dependencies</title>
<polygon fill="white" stroke="transparent" points="-4,4 -4,-370 2782,-370 2782,4 -4,4"/>
<text text-anchor="start" x="1368.01" y="-42.4" font-family="Times-12" font-weight="bold" font-size="14.00">Legend</text>
<polygon fill="#ffffb3" stroke="transparent" points="1155,-10 1155,-30 1175,-30 1175,-10 1155,-10"/>
<text text-anchor="start" x="1178.63" y="-15.4" font-family="Times-12" font-size="14.00"> &#160;Declarations</text>
<polygon fill="#8dd3c7" stroke="transparent" points="1268,-10 1268,-30 1288,-30 1288,-10 1268,-10"/>
<text text-anchor="start" x="1291.73" y="-15.4" font-family="Times-12" font-size="14.00"> &#160;Module</text>
<polygon fill="#80b1d3" stroke="transparent" points="1354,-10 1354,-30 1374,-30 1374,-10 1354,-10"/>
<text text-anchor="start" x="1377.78" y="-15.4" font-family="Times-12" font-size="14.00"> &#160;Bootstrap</text>
<polygon fill="#fdb462" stroke="transparent" points="1451,-10 1451,-30 1471,-30 1471,-10 1451,-10"/>
<text text-anchor="start" x="1474.67" y="-15.4" font-family="Times-12" font-size="14.00"> &#160;Providers</text>
<polygon fill="#fb8072" stroke="transparent" points="1547,-10 1547,-30 1567,-30 1567,-10 1547,-10"/>
<text text-anchor="start" x="1570.73" y="-15.4" font-family="Times-12" font-size="14.00"> &#160;Exports</text>
<g id="clust1" class="cluster">
<title>cluster_AnnouncementModule</title>
<polygon fill="none" stroke="black" stroke-dasharray="1,5" points="2540,-146 2540,-358 2770,-358 2770,-146 2540,-146"/>
</g>
<g id="clust4" class="cluster">
<title>cluster_AnnouncementModule_exports</title>
<polygon fill="none" stroke="black" points="2560,-298 2560,-350 2724,-350 2724,-298 2560,-298"/>
</g>
<g id="clust6" class="cluster">
<title>cluster_AnnouncementModule_providers</title>
<polygon fill="none" stroke="black" points="2548,-154 2548,-206 2762,-206 2762,-154 2548,-154"/>
</g>
<g id="clust7" class="cluster">
<title>cluster_AppModule</title>
<polygon fill="none" stroke="black" stroke-dasharray="1,5" points="516,-146 516,-350 1452,-350 1452,-146 516,-146"/>
</g>
<g id="clust9" class="cluster">
<title>cluster_AppModule_imports</title>
<polygon fill="none" stroke="black" points="524,-154 524,-274 1214,-274 1214,-154 524,-154"/>
</g>
<g id="clust12" class="cluster">
<title>cluster_AppModule_providers</title>
<polygon fill="none" stroke="black" points="1222,-222 1222,-274 1352,-274 1352,-222 1222,-222"/>
</g>
<g id="clust13" class="cluster">
<title>cluster_AppointmentModule</title>
<polygon fill="none" stroke="black" stroke-dasharray="1,5" points="1460,-214 1460,-282 1834,-282 1834,-214 1460,-214"/>
</g>
<g id="clust16" class="cluster">
<title>cluster_AppointmentModule_exports</title>
<polygon fill="none" stroke="black" points="1674,-222 1674,-274 1826,-274 1826,-222 1674,-222"/>
</g>
<g id="clust18" class="cluster">
<title>cluster_AppointmentModule_providers</title>
<polygon fill="none" stroke="black" points="1468,-222 1468,-274 1666,-274 1666,-222 1468,-222"/>
</g>
<g id="clust19" class="cluster">
<title>cluster_AuthModule</title>
<polygon fill="none" stroke="black" stroke-dasharray="1,5" points="8,-290 8,-358 508,-358 508,-290 8,-290"/>
</g>
<g id="clust22" class="cluster">
<title>cluster_AuthModule_exports</title>
<polygon fill="none" stroke="black" points="290,-298 290,-350 500,-350 500,-298 290,-298"/>
</g>
<g id="clust24" class="cluster">
<title>cluster_AuthModule_providers</title>
<polygon fill="none" stroke="black" points="16,-298 16,-350 282,-350 282,-298 16,-298"/>
</g>
<g id="clust25" class="cluster">
<title>cluster_DocumentApplicationsModule</title>
<polygon fill="none" stroke="black" stroke-dasharray="1,5" points="481,-70 481,-138 773,-138 773,-70 481,-70"/>
</g>
<g id="clust30" class="cluster">
<title>cluster_DocumentApplicationsModule_providers</title>
<polygon fill="none" stroke="black" points="489,-78 489,-130 765,-130 765,-78 489,-78"/>
</g>
<g id="clust31" class="cluster">
<title>cluster_QueueModule</title>
<polygon fill="none" stroke="black" stroke-dasharray="1,5" points="1842,-214 1842,-282 2250,-282 2250,-214 1842,-214"/>
</g>
<g id="clust34" class="cluster">
<title>cluster_QueueModule_exports</title>
<polygon fill="none" stroke="black" points="2004,-222 2004,-274 2242,-274 2242,-222 2004,-222"/>
</g>
<g id="clust36" class="cluster">
<title>cluster_QueueModule_providers</title>
<polygon fill="none" stroke="black" points="1850,-222 1850,-274 1996,-274 1996,-222 1850,-222"/>
</g>
<g id="clust37" class="cluster">
<title>cluster_RolesModule</title>
<polygon fill="none" stroke="black" stroke-dasharray="1,5" points="2258,-214 2258,-282 2532,-282 2532,-214 2258,-214"/>
</g>
<g id="clust40" class="cluster">
<title>cluster_RolesModule_exports</title>
<polygon fill="none" stroke="black" points="2414,-222 2414,-274 2524,-274 2524,-222 2414,-222"/>
</g>
<g id="clust42" class="cluster">
<title>cluster_RolesModule_providers</title>
<polygon fill="none" stroke="black" points="2266,-222 2266,-274 2406,-274 2406,-222 2266,-222"/>
</g>
<!-- AnnouncementService  -->
<g id="node1" class="node">
<title>AnnouncementService </title>
<polygon fill="#fb8072" stroke="black" points="2715.51,-342 2568.49,-342 2568.49,-306 2715.51,-306 2715.51,-342"/>
<text text-anchor="middle" x="2642" y="-319.8" font-family="Times,serif" font-size="14.00">AnnouncementService </text>
</g>
<!-- AnnouncementModule -->
<g id="node2" class="node">
<title>AnnouncementModule</title>
<polygon fill="#8dd3c7" stroke="black" points="2714.58,-266 2711.58,-270 2690.58,-270 2687.58,-266 2569.42,-266 2569.42,-230 2714.58,-230 2714.58,-266"/>
<text text-anchor="middle" x="2642" y="-243.8" font-family="Times,serif" font-size="14.00">AnnouncementModule</text>
</g>
<!-- AnnouncementModule&#45;&gt;AnnouncementService  -->
<g id="edge1" class="edge">
<title>AnnouncementModule&#45;&gt;AnnouncementService </title>
<path fill="none" stroke="black" stroke-dasharray="5,2" d="M2642,-266.01C2642,-266.01 2642,-295.85 2642,-295.85"/>
<polygon fill="black" stroke="black" points="2638.5,-295.85 2642,-305.85 2645.5,-295.85 2638.5,-295.85"/>
</g>
<!-- AppModule -->
<g id="node10" class="node">
<title>AppModule</title>
<polygon fill="#8dd3c7" stroke="black" points="1433.66,-342 1430.66,-346 1409.66,-346 1406.66,-342 1350.34,-342 1350.34,-306 1433.66,-306 1433.66,-342"/>
<text text-anchor="middle" x="1392" y="-319.8" font-family="Times,serif" font-size="14.00">AppModule</text>
</g>
<!-- AnnouncementModule&#45;&gt;AppModule -->
<g id="edge3" class="edge">
<title>AnnouncementModule&#45;&gt;AppModule</title>
<path fill="none" stroke="black" d="M2569.33,-248C2564.94,-248 2562.25,-248 2562.25,-248 2562.25,-248 2562.25,-324 2562.25,-324 2562.25,-324 1443.99,-324 1443.99,-324"/>
<polygon fill="black" stroke="black" points="1443.99,-320.5 1433.99,-324 1443.99,-327.5 1443.99,-320.5"/>
</g>
<!-- AnnouncementService -->
<g id="node3" class="node">
<title>AnnouncementService</title>
<ellipse fill="#fdb462" stroke="black" cx="2655" cy="-180" rx="98.98" ry="18"/>
<text text-anchor="middle" x="2655" y="-175.8" font-family="Times,serif" font-size="14.00">AnnouncementService</text>
</g>
<!-- AnnouncementService&#45;&gt;AnnouncementModule -->
<g id="edge2" class="edge">
<title>AnnouncementService&#45;&gt;AnnouncementModule</title>
<path fill="none" stroke="black" d="M2642,-197.87C2642,-197.87 2642,-219.54 2642,-219.54"/>
<polygon fill="black" stroke="black" points="2638.5,-219.54 2642,-229.54 2645.5,-219.54 2638.5,-219.54"/>
</g>
<!-- AppointmentModule -->
<g id="node4" class="node">
<title>AppointmentModule</title>
<polygon fill="#8dd3c7" stroke="black" points="981.93,-198 978.93,-202 957.93,-202 954.93,-198 848.07,-198 848.07,-162 981.93,-162 981.93,-198"/>
<text text-anchor="middle" x="915" y="-175.8" font-family="Times,serif" font-size="14.00">AppointmentModule</text>
</g>
<!-- AppointmentModule&#45;&gt;AppModule -->
<g id="edge4" class="edge">
<title>AppointmentModule&#45;&gt;AppModule</title>
<path fill="none" stroke="black" d="M948.36,-198.19C948.36,-235.46 948.36,-317 948.36,-317 948.36,-317 1340.26,-317 1340.26,-317"/>
<polygon fill="black" stroke="black" points="1340.26,-320.5 1350.26,-317 1340.26,-313.5 1340.26,-320.5"/>
</g>
<!-- AppointmentService  -->
<g id="node12" class="node">
<title>AppointmentService </title>
<polygon fill="#fb8072" stroke="black" points="1817.86,-266 1682.14,-266 1682.14,-230 1817.86,-230 1817.86,-266"/>
<text text-anchor="middle" x="1750" y="-243.8" font-family="Times,serif" font-size="14.00">AppointmentService </text>
</g>
<!-- AppointmentModule&#45;&gt;AppointmentService  -->
<g id="edge11" class="edge">
<title>AppointmentModule&#45;&gt;AppointmentService </title>
<path fill="none" stroke="black" stroke-dasharray="5,2" d="M881.64,-198.13C881.64,-208.71 881.64,-220 881.64,-220 881.64,-220 1750,-220 1750,-220 1750,-220 1750,-220.98 1750,-220.98"/>
<polygon fill="black" stroke="black" points="1746.5,-219.79 1750,-229.79 1753.5,-219.79 1746.5,-219.79"/>
</g>
<!-- AuthModule -->
<g id="node5" class="node">
<title>AuthModule</title>
<polygon fill="#8dd3c7" stroke="black" points="619.55,-266 616.55,-270 595.55,-270 592.55,-266 532.45,-266 532.45,-230 619.55,-230 619.55,-266"/>
<text text-anchor="middle" x="576" y="-243.8" font-family="Times,serif" font-size="14.00">AuthModule</text>
</g>
<!-- AuthModule&#45;&gt;AppModule -->
<g id="edge5" class="edge">
<title>AuthModule&#45;&gt;AppModule</title>
<path fill="none" stroke="black" d="M590.59,-266.23C590.59,-290.93 590.59,-332 590.59,-332 590.59,-332 1340.32,-332 1340.32,-332"/>
<polygon fill="black" stroke="black" points="1340.32,-335.5 1350.32,-332 1340.32,-328.5 1340.32,-335.5"/>
</g>
<!-- AuthService  -->
<g id="node14" class="node">
<title>AuthService </title>
<polygon fill="#fb8072" stroke="black" points="491.98,-342 402.02,-342 402.02,-306 491.98,-306 491.98,-342"/>
<text text-anchor="middle" x="447" y="-319.8" font-family="Times,serif" font-size="14.00">AuthService </text>
</g>
<!-- AuthModule&#45;&gt;AuthService  -->
<g id="edge14" class="edge">
<title>AuthModule&#45;&gt;AuthService </title>
<path fill="none" stroke="black" stroke-dasharray="5,2" d="M561.41,-266.01C561.41,-292.02 561.41,-337 561.41,-337 561.41,-337 501.89,-337 501.89,-337"/>
<polygon fill="black" stroke="black" points="501.89,-333.5 491.89,-337 501.89,-340.5 501.89,-333.5"/>
</g>
<!-- JwtStrategy  -->
<g id="node15" class="node">
<title>JwtStrategy </title>
<polygon fill="#fb8072" stroke="black" points="383.6,-342 298.4,-342 298.4,-306 383.6,-306 383.6,-342"/>
<text text-anchor="middle" x="341" y="-319.8" font-family="Times,serif" font-size="14.00">JwtStrategy </text>
</g>
<!-- AuthModule&#45;&gt;JwtStrategy  -->
<g id="edge15" class="edge">
<title>AuthModule&#45;&gt;JwtStrategy </title>
<path fill="none" stroke="black" stroke-dasharray="5,2" d="M532.35,-257C464.39,-257 341,-257 341,-257 341,-257 341,-295.69 341,-295.69"/>
<polygon fill="black" stroke="black" points="337.5,-295.69 341,-305.69 344.5,-295.69 337.5,-295.69"/>
</g>
<!-- DocumentApplicationsModule -->
<g id="node6" class="node">
<title>DocumentApplicationsModule</title>
<polygon fill="#8dd3c7" stroke="black" points="721.91,-198 718.91,-202 697.91,-202 694.91,-198 532.09,-198 532.09,-162 721.91,-162 721.91,-198"/>
<text text-anchor="middle" x="627" y="-175.8" font-family="Times,serif" font-size="14.00">DocumentApplicationsModule</text>
</g>
<!-- DocumentApplicationsModule&#45;&gt;AppModule -->
<g id="edge6" class="edge">
<title>DocumentApplicationsModule&#45;&gt;AppModule</title>
<path fill="none" stroke="black" d="M670.74,-198.03C670.74,-237.28 670.74,-327 670.74,-327 670.74,-327 1340.1,-327 1340.1,-327"/>
<polygon fill="black" stroke="black" points="1340.1,-330.5 1350.1,-327 1340.1,-323.5 1340.1,-330.5"/>
</g>
<!-- QueueModule -->
<g id="node7" class="node">
<title>QueueModule</title>
<polygon fill="#8dd3c7" stroke="black" points="1096.09,-198 1093.09,-202 1072.09,-202 1069.09,-198 999.91,-198 999.91,-162 1096.09,-162 1096.09,-198"/>
<text text-anchor="middle" x="1048" y="-175.8" font-family="Times,serif" font-size="14.00">QueueModule</text>
</g>
<!-- QueueModule&#45;&gt;AppModule -->
<g id="edge7" class="edge">
<title>QueueModule&#45;&gt;AppModule</title>
<path fill="none" stroke="black" d="M1076.83,-198.08C1076.83,-234.23 1076.83,-312 1076.83,-312 1076.83,-312 1340.15,-312 1340.15,-312"/>
<polygon fill="black" stroke="black" points="1340.15,-315.5 1350.15,-312 1340.15,-308.5 1340.15,-315.5"/>
</g>
<!-- QueueGateway  -->
<g id="node19" class="node">
<title>QueueGateway </title>
<polygon fill="#fb8072" stroke="black" points="2117.78,-266 2012.22,-266 2012.22,-230 2117.78,-230 2117.78,-266"/>
<text text-anchor="middle" x="2065" y="-243.8" font-family="Times,serif" font-size="14.00">QueueGateway </text>
</g>
<!-- QueueModule&#45;&gt;QueueGateway  -->
<g id="edge19" class="edge">
<title>QueueModule&#45;&gt;QueueGateway </title>
<path fill="none" stroke="black" stroke-dasharray="5,2" d="M1019.17,-198.2C1019.17,-204.03 1019.17,-209 1019.17,-209 1019.17,-209 2065,-209 2065,-209 2065,-209 2065,-219.87 2065,-219.87"/>
<polygon fill="black" stroke="black" points="2061.5,-219.87 2065,-229.87 2068.5,-219.87 2061.5,-219.87"/>
</g>
<!-- QueueService  -->
<g id="node20" class="node">
<title>QueueService </title>
<polygon fill="#fb8072" stroke="black" points="2234.01,-266 2135.99,-266 2135.99,-230 2234.01,-230 2234.01,-266"/>
<text text-anchor="middle" x="2185" y="-243.8" font-family="Times,serif" font-size="14.00">QueueService </text>
</g>
<!-- QueueModule&#45;&gt;QueueService  -->
<g id="edge20" class="edge">
<title>QueueModule&#45;&gt;QueueService </title>
<path fill="none" stroke="black" stroke-dasharray="5,2" d="M1038.39,-198.19C1038.39,-201.54 1038.39,-204 1038.39,-204 1038.39,-204 2185,-204 2185,-204 2185,-204 2185,-219.85 2185,-219.85"/>
<polygon fill="black" stroke="black" points="2181.5,-219.85 2185,-229.85 2188.5,-219.85 2181.5,-219.85"/>
</g>
<!-- RolesModule -->
<g id="node8" class="node">
<title>RolesModule</title>
<polygon fill="#8dd3c7" stroke="black" points="1205.94,-198 1202.94,-202 1181.94,-202 1178.94,-198 1114.06,-198 1114.06,-162 1205.94,-162 1205.94,-198"/>
<text text-anchor="middle" x="1160" y="-175.8" font-family="Times,serif" font-size="14.00">RolesModule</text>
</g>
<!-- RolesModule&#45;&gt;AuthModule -->
<g id="edge13" class="edge">
<title>RolesModule&#45;&gt;AuthModule</title>
<path fill="none" stroke="black" d="M1160,-198.22C1160,-218.37 1160,-248 1160,-248 1160,-248 629.89,-248 629.89,-248"/>
<polygon fill="black" stroke="black" points="629.89,-244.5 619.89,-248 629.89,-251.5 629.89,-244.5"/>
</g>
<!-- RolesModule&#45;&gt;AppModule -->
<g id="edge8" class="edge">
<title>RolesModule&#45;&gt;AppModule</title>
<path fill="none" stroke="black" d="M1205.97,-189C1277.16,-189 1405.94,-189 1405.94,-189 1405.94,-189 1405.94,-295.79 1405.94,-295.79"/>
<polygon fill="black" stroke="black" points="1402.44,-295.79 1405.94,-305.79 1409.44,-295.79 1402.44,-295.79"/>
</g>
<!-- RolesService  -->
<g id="node22" class="node">
<title>RolesService </title>
<polygon fill="#fb8072" stroke="black" points="2515.86,-266 2422.14,-266 2422.14,-230 2515.86,-230 2515.86,-266"/>
<text text-anchor="middle" x="2469" y="-243.8" font-family="Times,serif" font-size="14.00">RolesService </text>
</g>
<!-- RolesModule&#45;&gt;RolesService  -->
<g id="edge22" class="edge">
<title>RolesModule&#45;&gt;RolesService </title>
<path fill="none" stroke="black" stroke-dasharray="5,2" d="M1205.82,-171C1437.5,-171 2469,-171 2469,-171 2469,-171 2469,-219.75 2469,-219.75"/>
<polygon fill="black" stroke="black" points="2465.5,-219.75 2469,-229.75 2472.5,-219.75 2465.5,-219.75"/>
</g>
<!-- UsersModule -->
<g id="node9" class="node">
<title>UsersModule</title>
<polygon fill="#8dd3c7" stroke="black" points="830.92,-198 827.92,-202 806.92,-202 803.92,-198 739.08,-198 739.08,-162 830.92,-162 830.92,-198"/>
<text text-anchor="middle" x="785" y="-175.8" font-family="Times,serif" font-size="14.00">UsersModule</text>
</g>
<!-- UsersModule&#45;&gt;AppModule -->
<g id="edge9" class="edge">
<title>UsersModule&#45;&gt;AppModule</title>
<path fill="none" stroke="black" d="M785,-198.27C785,-236.63 785,-322 785,-322 785,-322 1340.28,-322 1340.28,-322"/>
<polygon fill="black" stroke="black" points="1340.28,-325.5 1350.28,-322 1340.28,-318.5 1340.28,-325.5"/>
</g>
<!-- AppService -->
<g id="node11" class="node">
<title>AppService</title>
<ellipse fill="#fdb462" stroke="black" cx="1287" cy="-248" rx="56.74" ry="18"/>
<text text-anchor="middle" x="1287" y="-243.8" font-family="Times,serif" font-size="14.00">AppService</text>
</g>
<!-- AppService&#45;&gt;AppModule -->
<g id="edge10" class="edge">
<title>AppService&#45;&gt;AppModule</title>
<path fill="none" stroke="black" d="M1343.63,-248C1362.15,-248 1378.06,-248 1378.06,-248 1378.06,-248 1378.06,-295.99 1378.06,-295.99"/>
<polygon fill="black" stroke="black" points="1374.56,-295.99 1378.06,-305.99 1381.56,-295.99 1374.56,-295.99"/>
</g>
<!-- AppointmentService -->
<g id="node13" class="node">
<title>AppointmentService</title>
<ellipse fill="#fdb462" stroke="black" cx="1567" cy="-248" rx="90.91" ry="18"/>
<text text-anchor="middle" x="1567" y="-243.8" font-family="Times,serif" font-size="14.00">AppointmentService</text>
</g>
<!-- AppointmentService&#45;&gt;AppointmentModule -->
<g id="edge12" class="edge">
<title>AppointmentService&#45;&gt;AppointmentModule</title>
<path fill="none" stroke="black" d="M1567,-229.88C1567,-227.03 1567,-225 1567,-225 1567,-225 915,-225 915,-225 915,-225 915,-208.04 915,-208.04"/>
<polygon fill="black" stroke="black" points="918.5,-208.04 915,-198.04 911.5,-208.04 918.5,-208.04"/>
</g>
<!-- AuthService -->
<g id="node16" class="node">
<title>AuthService</title>
<ellipse fill="#fdb462" stroke="black" cx="215" cy="-324" rx="59.11" ry="18"/>
<text text-anchor="middle" x="215" y="-319.8" font-family="Times,serif" font-size="14.00">AuthService</text>
</g>
<!-- AuthService&#45;&gt;AuthModule -->
<g id="edge16" class="edge">
<title>AuthService&#45;&gt;AuthModule</title>
<path fill="none" stroke="black" d="M215,-305.99C215,-283.51 215,-248 215,-248 215,-248 522.1,-248 522.1,-248"/>
<polygon fill="black" stroke="black" points="522.1,-251.5 532.1,-248 522.1,-244.5 522.1,-251.5"/>
</g>
<!-- JwtStrategy -->
<g id="node17" class="node">
<title>JwtStrategy</title>
<ellipse fill="#fdb462" stroke="black" cx="81" cy="-324" rx="56.76" ry="18"/>
<text text-anchor="middle" x="81" y="-319.8" font-family="Times,serif" font-size="14.00">JwtStrategy</text>
</g>
<!-- JwtStrategy&#45;&gt;AuthModule -->
<g id="edge17" class="edge">
<title>JwtStrategy&#45;&gt;AuthModule</title>
<path fill="none" stroke="black" d="M81,-305.97C81,-281.02 81,-239 81,-239 81,-239 522.07,-239 522.07,-239"/>
<polygon fill="black" stroke="black" points="522.07,-242.5 532.07,-239 522.07,-235.5 522.07,-242.5"/>
</g>
<!-- DocumentApplicationsService -->
<g id="node18" class="node">
<title>DocumentApplicationsService</title>
<ellipse fill="#fdb462" stroke="black" cx="627" cy="-104" rx="129.63" ry="18"/>
<text text-anchor="middle" x="627" y="-99.8" font-family="Times,serif" font-size="14.00">DocumentApplicationsService</text>
</g>
<!-- DocumentApplicationsService&#45;&gt;DocumentApplicationsModule -->
<g id="edge18" class="edge">
<title>DocumentApplicationsService&#45;&gt;DocumentApplicationsModule</title>
<path fill="none" stroke="black" d="M627,-122.01C627,-122.01 627,-151.85 627,-151.85"/>
<polygon fill="black" stroke="black" points="623.5,-151.85 627,-161.85 630.5,-151.85 623.5,-151.85"/>
</g>
<!-- QueueService -->
<g id="node21" class="node">
<title>QueueService</title>
<ellipse fill="#fdb462" stroke="black" cx="1923" cy="-248" rx="65.39" ry="18"/>
<text text-anchor="middle" x="1923" y="-243.8" font-family="Times,serif" font-size="14.00">QueueService</text>
</g>
<!-- QueueService&#45;&gt;QueueModule -->
<g id="edge21" class="edge">
<title>QueueService&#45;&gt;QueueModule</title>
<path fill="none" stroke="black" d="M1923,-229.81C1923,-221.72 1923,-214 1923,-214 1923,-214 1057.61,-214 1057.61,-214 1057.61,-214 1057.61,-208.19 1057.61,-208.19"/>
<polygon fill="black" stroke="black" points="1061.11,-208.19 1057.61,-198.19 1054.11,-208.19 1061.11,-208.19"/>
</g>
<!-- RolesService -->
<g id="node23" class="node">
<title>RolesService</title>
<ellipse fill="#fdb462" stroke="black" cx="2336" cy="-248" rx="61.97" ry="18"/>
<text text-anchor="middle" x="2336" y="-243.8" font-family="Times,serif" font-size="14.00">RolesService</text>
</g>
<!-- RolesService&#45;&gt;RolesModule -->
<g id="edge23" class="edge">
<title>RolesService&#45;&gt;RolesModule</title>
<path fill="none" stroke="black" d="M2336,-229.78C2336,-209.63 2336,-180 2336,-180 2336,-180 1215.74,-180 1215.74,-180"/>
<polygon fill="black" stroke="black" points="1215.74,-176.5 1205.74,-180 1215.74,-183.5 1215.74,-176.5"/>
</g>
</g>
</svg>
