<?xml version="1.0" encoding="UTF-8" standalone="no"?>
<!DOCTYPE svg PUBLIC "-//W3C//DTD SVG 1.1//EN"
 "http://www.w3.org/Graphics/SVG/1.1/DTD/svg11.dtd">
<!-- Generated by graphviz version 2.47.0 (20210316.0004)
 -->
<!-- Title: dependencies Pages: 1 -->
<svg width="700pt" height="284pt"
 viewBox="0.00 0.00 700.00 284.00" xmlns="http://www.w3.org/2000/svg" xmlns:xlink="http://www.w3.org/1999/xlink">
<g id="graph0" class="graph" transform="scale(1 1) rotate(0) translate(4 280)">
<title>dependencies</title>
<polygon fill="white" stroke="transparent" points="-4,4 -4,-280 696,-280 696,4 -4,4"/>
<text text-anchor="start" x="325.01" y="-42.4" font-family="Times-12" font-weight="bold" font-size="14.00">Legend</text>
<polygon fill="#ffffb3" stroke="transparent" points="112,-10 112,-30 132,-30 132,-10 112,-10"/>
<text text-anchor="start" x="135.63" y="-15.4" font-family="Times-12" font-size="14.00"> &#160;Declarations</text>
<polygon fill="#8dd3c7" stroke="transparent" points="225,-10 225,-30 245,-30 245,-10 225,-10"/>
<text text-anchor="start" x="248.73" y="-15.4" font-family="Times-12" font-size="14.00"> &#160;Module</text>
<polygon fill="#80b1d3" stroke="transparent" points="311,-10 311,-30 331,-30 331,-10 311,-10"/>
<text text-anchor="start" x="334.78" y="-15.4" font-family="Times-12" font-size="14.00"> &#160;Bootstrap</text>
<polygon fill="#fdb462" stroke="transparent" points="408,-10 408,-30 428,-30 428,-10 408,-10"/>
<text text-anchor="start" x="431.67" y="-15.4" font-family="Times-12" font-size="14.00"> &#160;Providers</text>
<polygon fill="#fb8072" stroke="transparent" points="504,-10 504,-30 524,-30 524,-10 504,-10"/>
<text text-anchor="start" x="527.73" y="-15.4" font-family="Times-12" font-size="14.00"> &#160;Exports</text>
<g id="clust1" class="cluster">
<title>cluster_AuthModule</title>
<polygon fill="none" stroke="black" stroke-dasharray="1,5" points="8,-70 8,-268 684,-268 684,-70 8,-70"/>
</g>
<g id="clust3" class="cluster">
<title>cluster_AuthModule_imports</title>
<polygon fill="none" stroke="black" points="568,-78 568,-130 676,-130 676,-78 568,-78"/>
</g>
<g id="clust4" class="cluster">
<title>cluster_AuthModule_exports</title>
<polygon fill="none" stroke="black" points="142,-208 142,-260 570,-260 570,-208 142,-208"/>
</g>
<g id="clust6" class="cluster">
<title>cluster_AuthModule_providers</title>
<polygon fill="none" stroke="black" points="16,-78 16,-130 560,-130 560,-78 16,-78"/>
</g>
<!-- RolesModule -->
<g id="node1" class="node">
<title>RolesModule</title>
<polygon fill="#8dd3c7" stroke="black" points="667.94,-122 664.94,-126 643.94,-126 640.94,-122 576.06,-122 576.06,-86 667.94,-86 667.94,-122"/>
<text text-anchor="middle" x="622" y="-99.8" font-family="Times,serif" font-size="14.00">RolesModule</text>
</g>
<!-- AuthModule -->
<g id="node2" class="node">
<title>AuthModule</title>
<polygon fill="#8dd3c7" stroke="black" points="396.55,-187 393.55,-191 372.55,-191 369.55,-187 309.45,-187 309.45,-151 396.55,-151 396.55,-187"/>
<text text-anchor="middle" x="353" y="-164.8" font-family="Times,serif" font-size="14.00">AuthModule</text>
</g>
<!-- RolesModule&#45;&gt;AuthModule -->
<g id="edge1" class="edge">
<title>RolesModule&#45;&gt;AuthModule</title>
<path fill="none" stroke="black" d="M622,-122.11C622,-141.34 622,-169 622,-169 622,-169 406.82,-169 406.82,-169"/>
<polygon fill="black" stroke="black" points="406.82,-165.5 396.82,-169 406.82,-172.5 406.82,-165.5"/>
</g>
<!-- AuthService  -->
<g id="node3" class="node">
<title>AuthService </title>
<polygon fill="#fb8072" stroke="black" points="561.98,-252 472.02,-252 472.02,-216 561.98,-216 561.98,-252"/>
<text text-anchor="middle" x="517" y="-229.8" font-family="Times,serif" font-size="14.00">AuthService </text>
</g>
<!-- AuthModule&#45;&gt;AuthService  -->
<g id="edge2" class="edge">
<title>AuthModule&#45;&gt;AuthService </title>
<path fill="none" stroke="black" stroke-dasharray="5,2" d="M396.95,-178C444.09,-178 512.28,-178 512.28,-178 512.28,-178 512.28,-205.97 512.28,-205.97"/>
<polygon fill="black" stroke="black" points="508.78,-205.97 512.28,-215.97 515.78,-205.97 508.78,-205.97"/>
</g>
<!-- EmailService  -->
<g id="node4" class="node">
<title>EmailService </title>
<polygon fill="#fb8072" stroke="black" points="454.42,-252 359.58,-252 359.58,-216 454.42,-216 454.42,-252"/>
<text text-anchor="middle" x="407" y="-229.8" font-family="Times,serif" font-size="14.00">EmailService </text>
</g>
<!-- AuthModule&#45;&gt;EmailService  -->
<g id="edge3" class="edge">
<title>AuthModule&#45;&gt;EmailService </title>
<path fill="none" stroke="black" stroke-dasharray="5,2" d="M378.16,-187.11C378.16,-187.11 378.16,-205.99 378.16,-205.99"/>
<polygon fill="black" stroke="black" points="374.66,-205.99 378.16,-215.99 381.66,-205.99 374.66,-205.99"/>
</g>
<!-- JwtStrategy  -->
<g id="node5" class="node">
<title>JwtStrategy </title>
<polygon fill="#fb8072" stroke="black" points="341.6,-252 256.4,-252 256.4,-216 341.6,-216 341.6,-252"/>
<text text-anchor="middle" x="299" y="-229.8" font-family="Times,serif" font-size="14.00">JwtStrategy </text>
</g>
<!-- AuthModule&#45;&gt;JwtStrategy  -->
<g id="edge4" class="edge">
<title>AuthModule&#45;&gt;JwtStrategy </title>
<path fill="none" stroke="black" stroke-dasharray="5,2" d="M325.51,-187.11C325.51,-187.11 325.51,-205.99 325.51,-205.99"/>
<polygon fill="black" stroke="black" points="322.01,-205.99 325.51,-215.99 329.01,-205.99 322.01,-205.99"/>
</g>
<!-- OTPService  -->
<g id="node6" class="node">
<title>OTPService </title>
<polygon fill="#fb8072" stroke="black" points="237.92,-252 150.08,-252 150.08,-216 237.92,-216 237.92,-252"/>
<text text-anchor="middle" x="194" y="-229.8" font-family="Times,serif" font-size="14.00">OTPService </text>
</g>
<!-- AuthModule&#45;&gt;OTPService  -->
<g id="edge5" class="edge">
<title>AuthModule&#45;&gt;OTPService </title>
<path fill="none" stroke="black" stroke-dasharray="5,2" d="M309.04,-178C263.27,-178 198.17,-178 198.17,-178 198.17,-178 198.17,-205.97 198.17,-205.97"/>
<polygon fill="black" stroke="black" points="194.67,-205.97 198.17,-215.97 201.67,-205.97 194.67,-205.97"/>
</g>
<!-- AuthService -->
<g id="node7" class="node">
<title>AuthService</title>
<ellipse fill="#fdb462" stroke="black" cx="493" cy="-104" rx="59.11" ry="18"/>
<text text-anchor="middle" x="493" y="-99.8" font-family="Times,serif" font-size="14.00">AuthService</text>
</g>
<!-- AuthService&#45;&gt;AuthModule -->
<g id="edge6" class="edge">
<title>AuthService&#45;&gt;AuthModule</title>
<path fill="none" stroke="black" d="M444.08,-114.27C444.08,-130.44 444.08,-160 444.08,-160 444.08,-160 406.67,-160 406.67,-160"/>
<polygon fill="black" stroke="black" points="406.67,-156.5 396.67,-160 406.67,-163.5 406.67,-156.5"/>
</g>
<!-- EmailService -->
<g id="node8" class="node">
<title>EmailService</title>
<ellipse fill="#fdb462" stroke="black" cx="353" cy="-104" rx="63.12" ry="18"/>
<text text-anchor="middle" x="353" y="-99.8" font-family="Times,serif" font-size="14.00">EmailService</text>
</g>
<!-- EmailService&#45;&gt;AuthModule -->
<g id="edge7" class="edge">
<title>EmailService&#45;&gt;AuthModule</title>
<path fill="none" stroke="black" d="M353,-122.11C353,-122.11 353,-140.99 353,-140.99"/>
<polygon fill="black" stroke="black" points="349.5,-140.99 353,-150.99 356.5,-140.99 349.5,-140.99"/>
</g>
<!-- JwtStrategy -->
<g id="node9" class="node">
<title>JwtStrategy</title>
<ellipse fill="#fdb462" stroke="black" cx="215" cy="-104" rx="56.76" ry="18"/>
<text text-anchor="middle" x="215" y="-99.8" font-family="Times,serif" font-size="14.00">JwtStrategy</text>
</g>
<!-- JwtStrategy&#45;&gt;AuthModule -->
<g id="edge8" class="edge">
<title>JwtStrategy&#45;&gt;AuthModule</title>
<path fill="none" stroke="black" d="M263.92,-113.25C263.92,-129.15 263.92,-160 263.92,-160 263.92,-160 299.24,-160 299.24,-160"/>
<polygon fill="black" stroke="black" points="299.24,-163.5 309.24,-160 299.24,-156.5 299.24,-163.5"/>
</g>
<!-- OTPService -->
<g id="node10" class="node">
<title>OTPService</title>
<ellipse fill="#fdb462" stroke="black" cx="82" cy="-104" rx="58.46" ry="18"/>
<text text-anchor="middle" x="82" y="-99.8" font-family="Times,serif" font-size="14.00">OTPService</text>
</g>
<!-- OTPService&#45;&gt;AuthModule -->
<g id="edge9" class="edge">
<title>OTPService&#45;&gt;AuthModule</title>
<path fill="none" stroke="black" d="M82,-122.11C82,-141.34 82,-169 82,-169 82,-169 299.16,-169 299.16,-169"/>
<polygon fill="black" stroke="black" points="299.16,-172.5 309.16,-169 299.16,-165.5 299.16,-172.5"/>
</g>
</g>
</svg>
