<?xml version="1.0" encoding="UTF-8" standalone="no"?>
<!DOCTYPE svg PUBLIC "-//W3C//DTD SVG 1.1//EN"
 "http://www.w3.org/Graphics/SVG/1.1/DTD/svg11.dtd">
<!-- Generated by graphviz version 2.47.0 (20210316.0004)
 -->
<!-- Title: dependencies Pages: 1 -->
<svg width="1136pt" height="211pt"
 viewBox="0.00 0.00 1136.00 211.00" xmlns="http://www.w3.org/2000/svg" xmlns:xlink="http://www.w3.org/1999/xlink">
<g id="graph0" class="graph" transform="scale(1 1) rotate(0) translate(4 207)">
<title>dependencies</title>
<polygon fill="white" stroke="transparent" points="-4,4 -4,-207 1132,-207 1132,4 -4,4"/>
<text text-anchor="start" x="543.01" y="-42.4" font-family="Times-12" font-weight="bold" font-size="14.00">Legend</text>
<polygon fill="#ffffb3" stroke="transparent" points="330,-10 330,-30 350,-30 350,-10 330,-10"/>
<text text-anchor="start" x="353.63" y="-15.4" font-family="Times-12" font-size="14.00"> &#160;Declarations</text>
<polygon fill="#8dd3c7" stroke="transparent" points="443,-10 443,-30 463,-30 463,-10 443,-10"/>
<text text-anchor="start" x="466.73" y="-15.4" font-family="Times-12" font-size="14.00"> &#160;Module</text>
<polygon fill="#80b1d3" stroke="transparent" points="529,-10 529,-30 549,-30 549,-10 529,-10"/>
<text text-anchor="start" x="552.78" y="-15.4" font-family="Times-12" font-size="14.00"> &#160;Bootstrap</text>
<polygon fill="#fdb462" stroke="transparent" points="626,-10 626,-30 646,-30 646,-10 626,-10"/>
<text text-anchor="start" x="649.67" y="-15.4" font-family="Times-12" font-size="14.00"> &#160;Providers</text>
<polygon fill="#fb8072" stroke="transparent" points="722,-10 722,-30 742,-30 742,-10 722,-10"/>
<text text-anchor="start" x="745.73" y="-15.4" font-family="Times-12" font-size="14.00"> &#160;Exports</text>
<g id="clust1" class="cluster">
<title>cluster_AppModule</title>
<polygon fill="none" stroke="black" stroke-dasharray="1,5" points="8,-70 8,-195 1120,-195 1120,-70 8,-70"/>
</g>
<g id="clust6" class="cluster">
<title>cluster_AppModule_providers</title>
<polygon fill="none" stroke="black" points="982,-78 982,-130 1112,-130 1112,-78 982,-78"/>
</g>
<g id="clust3" class="cluster">
<title>cluster_AppModule_imports</title>
<polygon fill="none" stroke="black" points="16,-78 16,-130 974,-130 974,-78 16,-78"/>
</g>
<!-- AnnouncementModule -->
<g id="node1" class="node">
<title>AnnouncementModule</title>
<polygon fill="#8dd3c7" stroke="black" points="965.58,-122 962.58,-126 941.58,-126 938.58,-122 820.42,-122 820.42,-86 965.58,-86 965.58,-122"/>
<text text-anchor="middle" x="893" y="-99.8" font-family="Times,serif" font-size="14.00">AnnouncementModule</text>
</g>
<!-- AppModule -->
<g id="node8" class="node">
<title>AppModule</title>
<polygon fill="#8dd3c7" stroke="black" points="571.66,-187 568.66,-191 547.66,-191 544.66,-187 488.34,-187 488.34,-151 571.66,-151 571.66,-187"/>
<text text-anchor="middle" x="530" y="-164.8" font-family="Times,serif" font-size="14.00">AppModule</text>
</g>
<!-- AnnouncementModule&#45;&gt;AppModule -->
<g id="edge1" class="edge">
<title>AnnouncementModule&#45;&gt;AppModule</title>
<path fill="none" stroke="black" d="M893,-122.11C893,-141.34 893,-169 893,-169 893,-169 582,-169 582,-169"/>
<polygon fill="black" stroke="black" points="582,-165.5 572,-169 582,-172.5 582,-165.5"/>
</g>
<!-- AppointmentModule -->
<g id="node2" class="node">
<title>AppointmentModule</title>
<polygon fill="#8dd3c7" stroke="black" points="802.93,-122 799.93,-126 778.93,-126 775.93,-122 669.07,-122 669.07,-86 802.93,-86 802.93,-122"/>
<text text-anchor="middle" x="736" y="-99.8" font-family="Times,serif" font-size="14.00">AppointmentModule</text>
</g>
<!-- AppointmentModule&#45;&gt;AppModule -->
<g id="edge2" class="edge">
<title>AppointmentModule&#45;&gt;AppModule</title>
<path fill="none" stroke="black" d="M736,-122.03C736,-138.4 736,-160 736,-160 736,-160 581.69,-160 581.69,-160"/>
<polygon fill="black" stroke="black" points="581.69,-156.5 571.69,-160 581.69,-163.5 581.69,-156.5"/>
</g>
<!-- AuthModule -->
<g id="node3" class="node">
<title>AuthModule</title>
<polygon fill="#8dd3c7" stroke="black" points="651.55,-122 648.55,-126 627.55,-126 624.55,-122 564.45,-122 564.45,-86 651.55,-86 651.55,-122"/>
<text text-anchor="middle" x="608" y="-99.8" font-family="Times,serif" font-size="14.00">AuthModule</text>
</g>
<!-- AuthModule&#45;&gt;AppModule -->
<g id="edge3" class="edge">
<title>AuthModule&#45;&gt;AppModule</title>
<path fill="none" stroke="black" d="M568.03,-122.11C568.03,-122.11 568.03,-140.99 568.03,-140.99"/>
<polygon fill="black" stroke="black" points="564.53,-140.99 568.03,-150.99 571.53,-140.99 564.53,-140.99"/>
</g>
<!-- DocumentApplicationsModule -->
<g id="node4" class="node">
<title>DocumentApplicationsModule</title>
<polygon fill="#8dd3c7" stroke="black" points="546.91,-122 543.91,-126 522.91,-126 519.91,-122 357.09,-122 357.09,-86 546.91,-86 546.91,-122"/>
<text text-anchor="middle" x="452" y="-99.8" font-family="Times,serif" font-size="14.00">DocumentApplicationsModule</text>
</g>
<!-- DocumentApplicationsModule&#45;&gt;AppModule -->
<g id="edge4" class="edge">
<title>DocumentApplicationsModule&#45;&gt;AppModule</title>
<path fill="none" stroke="black" d="M517.44,-122.11C517.44,-122.11 517.44,-140.99 517.44,-140.99"/>
<polygon fill="black" stroke="black" points="513.94,-140.99 517.44,-150.99 520.94,-140.99 513.94,-140.99"/>
</g>
<!-- QueueModule -->
<g id="node5" class="node">
<title>QueueModule</title>
<polygon fill="#8dd3c7" stroke="black" points="339.09,-122 336.09,-126 315.09,-126 312.09,-122 242.91,-122 242.91,-86 339.09,-86 339.09,-122"/>
<text text-anchor="middle" x="291" y="-99.8" font-family="Times,serif" font-size="14.00">QueueModule</text>
</g>
<!-- QueueModule&#45;&gt;AppModule -->
<g id="edge5" class="edge">
<title>QueueModule&#45;&gt;AppModule</title>
<path fill="none" stroke="black" d="M291,-122.03C291,-138.4 291,-160 291,-160 291,-160 478.1,-160 478.1,-160"/>
<polygon fill="black" stroke="black" points="478.1,-163.5 488.1,-160 478.1,-156.5 478.1,-163.5"/>
</g>
<!-- RolesModule -->
<g id="node6" class="node">
<title>RolesModule</title>
<polygon fill="#8dd3c7" stroke="black" points="224.94,-122 221.94,-126 200.94,-126 197.94,-122 133.06,-122 133.06,-86 224.94,-86 224.94,-122"/>
<text text-anchor="middle" x="179" y="-99.8" font-family="Times,serif" font-size="14.00">RolesModule</text>
</g>
<!-- RolesModule&#45;&gt;AppModule -->
<g id="edge6" class="edge">
<title>RolesModule&#45;&gt;AppModule</title>
<path fill="none" stroke="black" d="M179,-122.11C179,-141.34 179,-169 179,-169 179,-169 478.01,-169 478.01,-169"/>
<polygon fill="black" stroke="black" points="478.01,-172.5 488.01,-169 478.01,-165.5 478.01,-172.5"/>
</g>
<!-- UsersModule -->
<g id="node7" class="node">
<title>UsersModule</title>
<polygon fill="#8dd3c7" stroke="black" points="115.92,-122 112.92,-126 91.92,-126 88.92,-122 24.08,-122 24.08,-86 115.92,-86 115.92,-122"/>
<text text-anchor="middle" x="70" y="-99.8" font-family="Times,serif" font-size="14.00">UsersModule</text>
</g>
<!-- UsersModule&#45;&gt;AppModule -->
<g id="edge7" class="edge">
<title>UsersModule&#45;&gt;AppModule</title>
<path fill="none" stroke="black" d="M70,-122.29C70,-144.21 70,-178 70,-178 70,-178 477.96,-178 477.96,-178"/>
<polygon fill="black" stroke="black" points="477.96,-181.5 487.96,-178 477.96,-174.5 477.96,-181.5"/>
</g>
<!-- AppService -->
<g id="node9" class="node">
<title>AppService</title>
<ellipse fill="#fdb462" stroke="black" cx="1047" cy="-104" rx="56.74" ry="18"/>
<text text-anchor="middle" x="1047" y="-99.8" font-family="Times,serif" font-size="14.00">AppService</text>
</g>
<!-- AppService&#45;&gt;AppModule -->
<g id="edge8" class="edge">
<title>AppService&#45;&gt;AppModule</title>
<path fill="none" stroke="black" d="M1047,-122.29C1047,-144.21 1047,-178 1047,-178 1047,-178 581.87,-178 581.87,-178"/>
<polygon fill="black" stroke="black" points="581.87,-174.5 571.87,-178 581.87,-181.5 581.87,-174.5"/>
</g>
</g>
</svg>
