<?xml version="1.0" encoding="UTF-8" standalone="no"?>
<!DOCTYPE svg PUBLIC "-//W3C//DTD SVG 1.1//EN"
 "http://www.w3.org/Graphics/SVG/1.1/DTD/svg11.dtd">
<!-- Generated by graphviz version 2.47.0 (20210316.0004)
 -->
<!-- Title: dependencies Pages: 1 -->
<svg width="1414pt" height="211pt"
 viewBox="0.00 0.00 1414.00 211.00" xmlns="http://www.w3.org/2000/svg" xmlns:xlink="http://www.w3.org/1999/xlink">
<g id="graph0" class="graph" transform="scale(1 1) rotate(0) translate(4 207)">
<title>dependencies</title>
<polygon fill="white" stroke="transparent" points="-4,4 -4,-207 1410,-207 1410,4 -4,4"/>
<text text-anchor="start" x="682.01" y="-42.4" font-family="Times-12" font-weight="bold" font-size="14.00">Legend</text>
<polygon fill="#ffffb3" stroke="transparent" points="469,-10 469,-30 489,-30 489,-10 469,-10"/>
<text text-anchor="start" x="492.63" y="-15.4" font-family="Times-12" font-size="14.00"> &#160;Declarations</text>
<polygon fill="#8dd3c7" stroke="transparent" points="582,-10 582,-30 602,-30 602,-10 582,-10"/>
<text text-anchor="start" x="605.73" y="-15.4" font-family="Times-12" font-size="14.00"> &#160;Module</text>
<polygon fill="#80b1d3" stroke="transparent" points="668,-10 668,-30 688,-30 688,-10 668,-10"/>
<text text-anchor="start" x="691.78" y="-15.4" font-family="Times-12" font-size="14.00"> &#160;Bootstrap</text>
<polygon fill="#fdb462" stroke="transparent" points="765,-10 765,-30 785,-30 785,-10 765,-10"/>
<text text-anchor="start" x="788.67" y="-15.4" font-family="Times-12" font-size="14.00"> &#160;Providers</text>
<polygon fill="#fb8072" stroke="transparent" points="861,-10 861,-30 881,-30 881,-10 861,-10"/>
<text text-anchor="start" x="884.73" y="-15.4" font-family="Times-12" font-size="14.00"> &#160;Exports</text>
<g id="clust1" class="cluster">
<title>cluster_AppModule</title>
<polygon fill="none" stroke="black" stroke-dasharray="1,5" points="8,-70 8,-195 1398,-195 1398,-70 8,-70"/>
</g>
<g id="clust6" class="cluster">
<title>cluster_AppModule_providers</title>
<polygon fill="none" stroke="black" points="982,-78 982,-130 1390,-130 1390,-78 982,-78"/>
</g>
<g id="clust3" class="cluster">
<title>cluster_AppModule_imports</title>
<polygon fill="none" stroke="black" points="16,-78 16,-130 974,-130 974,-78 16,-78"/>
</g>
<!-- AnnouncementModule -->
<g id="node1" class="node">
<title>AnnouncementModule</title>
<polygon fill="#8dd3c7" stroke="black" points="965.58,-122 962.58,-126 941.58,-126 938.58,-122 820.42,-122 820.42,-86 965.58,-86 965.58,-122"/>
<text text-anchor="middle" x="893" y="-99.8" font-family="Times,serif" font-size="14.00">AnnouncementModule</text>
</g>
<!-- AppModule -->
<g id="node8" class="node">
<title>AppModule</title>
<polygon fill="#8dd3c7" stroke="black" points="713.66,-187 710.66,-191 689.66,-191 686.66,-187 630.34,-187 630.34,-151 713.66,-151 713.66,-187"/>
<text text-anchor="middle" x="672" y="-164.8" font-family="Times,serif" font-size="14.00">AppModule</text>
</g>
<!-- AnnouncementModule&#45;&gt;AppModule -->
<g id="edge1" class="edge">
<title>AnnouncementModule&#45;&gt;AppModule</title>
<path fill="none" stroke="black" d="M893,-122.01C893,-138.05 893,-159 893,-159 893,-159 723.83,-159 723.83,-159"/>
<polygon fill="black" stroke="black" points="723.83,-155.5 713.83,-159 723.83,-162.5 723.83,-155.5"/>
</g>
<!-- AppointmentModule -->
<g id="node2" class="node">
<title>AppointmentModule</title>
<polygon fill="#8dd3c7" stroke="black" points="802.93,-122 799.93,-126 778.93,-126 775.93,-122 669.07,-122 669.07,-86 802.93,-86 802.93,-122"/>
<text text-anchor="middle" x="736" y="-99.8" font-family="Times,serif" font-size="14.00">AppointmentModule</text>
</g>
<!-- AppointmentModule&#45;&gt;AppModule -->
<g id="edge2" class="edge">
<title>AppointmentModule&#45;&gt;AppModule</title>
<path fill="none" stroke="black" d="M691.56,-122.11C691.56,-122.11 691.56,-140.99 691.56,-140.99"/>
<polygon fill="black" stroke="black" points="688.06,-140.99 691.56,-150.99 695.06,-140.99 688.06,-140.99"/>
</g>
<!-- AuthModule -->
<g id="node3" class="node">
<title>AuthModule</title>
<polygon fill="#8dd3c7" stroke="black" points="651.55,-122 648.55,-126 627.55,-126 624.55,-122 564.45,-122 564.45,-86 651.55,-86 651.55,-122"/>
<text text-anchor="middle" x="608" y="-99.8" font-family="Times,serif" font-size="14.00">AuthModule</text>
</g>
<!-- AuthModule&#45;&gt;AppModule -->
<g id="edge3" class="edge">
<title>AuthModule&#45;&gt;AppModule</title>
<path fill="none" stroke="black" d="M640.97,-122.11C640.97,-122.11 640.97,-140.99 640.97,-140.99"/>
<polygon fill="black" stroke="black" points="637.47,-140.99 640.97,-150.99 644.47,-140.99 637.47,-140.99"/>
</g>
<!-- DocumentApplicationsModule -->
<g id="node4" class="node">
<title>DocumentApplicationsModule</title>
<polygon fill="#8dd3c7" stroke="black" points="546.91,-122 543.91,-126 522.91,-126 519.91,-122 357.09,-122 357.09,-86 546.91,-86 546.91,-122"/>
<text text-anchor="middle" x="452" y="-99.8" font-family="Times,serif" font-size="14.00">DocumentApplicationsModule</text>
</g>
<!-- DocumentApplicationsModule&#45;&gt;AppModule -->
<g id="edge4" class="edge">
<title>DocumentApplicationsModule&#45;&gt;AppModule</title>
<path fill="none" stroke="black" d="M452,-122.01C452,-138.05 452,-159 452,-159 452,-159 620.1,-159 620.1,-159"/>
<polygon fill="black" stroke="black" points="620.1,-162.5 630.1,-159 620.1,-155.5 620.1,-162.5"/>
</g>
<!-- QueueModule -->
<g id="node5" class="node">
<title>QueueModule</title>
<polygon fill="#8dd3c7" stroke="black" points="339.09,-122 336.09,-126 315.09,-126 312.09,-122 242.91,-122 242.91,-86 339.09,-86 339.09,-122"/>
<text text-anchor="middle" x="291" y="-99.8" font-family="Times,serif" font-size="14.00">QueueModule</text>
</g>
<!-- QueueModule&#45;&gt;AppModule -->
<g id="edge5" class="edge">
<title>QueueModule&#45;&gt;AppModule</title>
<path fill="none" stroke="black" d="M291,-122.27C291,-140.56 291,-166 291,-166 291,-166 620.14,-166 620.14,-166"/>
<polygon fill="black" stroke="black" points="620.14,-169.5 630.14,-166 620.14,-162.5 620.14,-169.5"/>
</g>
<!-- RolesModule -->
<g id="node6" class="node">
<title>RolesModule</title>
<polygon fill="#8dd3c7" stroke="black" points="224.94,-122 221.94,-126 200.94,-126 197.94,-122 133.06,-122 133.06,-86 224.94,-86 224.94,-122"/>
<text text-anchor="middle" x="179" y="-99.8" font-family="Times,serif" font-size="14.00">RolesModule</text>
</g>
<!-- RolesModule&#45;&gt;AppModule -->
<g id="edge6" class="edge">
<title>RolesModule&#45;&gt;AppModule</title>
<path fill="none" stroke="black" d="M179,-122.13C179,-142.57 179,-173 179,-173 179,-173 619.97,-173 619.97,-173"/>
<polygon fill="black" stroke="black" points="619.97,-176.5 629.97,-173 619.97,-169.5 619.97,-176.5"/>
</g>
<!-- UsersModule -->
<g id="node7" class="node">
<title>UsersModule</title>
<polygon fill="#8dd3c7" stroke="black" points="115.92,-122 112.92,-126 91.92,-126 88.92,-122 24.08,-122 24.08,-86 115.92,-86 115.92,-122"/>
<text text-anchor="middle" x="70" y="-99.8" font-family="Times,serif" font-size="14.00">UsersModule</text>
</g>
<!-- UsersModule&#45;&gt;AppModule -->
<g id="edge7" class="edge">
<title>UsersModule&#45;&gt;AppModule</title>
<path fill="none" stroke="black" d="M70,-122.01C70,-144.49 70,-180 70,-180 70,-180 620.15,-180 620.15,-180"/>
<polygon fill="black" stroke="black" points="620.15,-183.5 630.15,-180 620.15,-176.5 620.15,-183.5"/>
</g>
<!-- AppService -->
<g id="node9" class="node">
<title>AppService</title>
<ellipse fill="#fdb462" stroke="black" cx="1325" cy="-104" rx="56.74" ry="18"/>
<text text-anchor="middle" x="1325" y="-99.8" font-family="Times,serif" font-size="14.00">AppService</text>
</g>
<!-- AppService&#45;&gt;AppModule -->
<g id="edge8" class="edge">
<title>AppService&#45;&gt;AppModule</title>
<path fill="none" stroke="black" d="M1325,-122.01C1325,-144.49 1325,-180 1325,-180 1325,-180 723.84,-180 723.84,-180"/>
<polygon fill="black" stroke="black" points="723.84,-176.5 713.84,-180 723.84,-183.5 723.84,-176.5"/>
</g>
<!-- EmailService -->
<g id="node10" class="node">
<title>EmailService</title>
<ellipse fill="#fdb462" stroke="black" cx="1187" cy="-104" rx="63.12" ry="18"/>
<text text-anchor="middle" x="1187" y="-99.8" font-family="Times,serif" font-size="14.00">EmailService</text>
</g>
<!-- EmailService&#45;&gt;AppModule -->
<g id="edge9" class="edge">
<title>EmailService&#45;&gt;AppModule</title>
<path fill="none" stroke="black" d="M1187,-122.13C1187,-142.57 1187,-173 1187,-173 1187,-173 723.71,-173 723.71,-173"/>
<polygon fill="black" stroke="black" points="723.71,-169.5 713.71,-173 723.71,-176.5 723.71,-169.5"/>
</g>
<!-- OTPService -->
<g id="node11" class="node">
<title>OTPService</title>
<ellipse fill="#fdb462" stroke="black" cx="1048" cy="-104" rx="58.46" ry="18"/>
<text text-anchor="middle" x="1048" y="-99.8" font-family="Times,serif" font-size="14.00">OTPService</text>
</g>
<!-- OTPService&#45;&gt;AppModule -->
<g id="edge10" class="edge">
<title>OTPService&#45;&gt;AppModule</title>
<path fill="none" stroke="black" d="M1048,-122.27C1048,-140.56 1048,-166 1048,-166 1048,-166 723.68,-166 723.68,-166"/>
<polygon fill="black" stroke="black" points="723.68,-162.5 713.68,-166 723.68,-169.5 723.68,-162.5"/>
</g>
</g>
</svg>
