<?xml version="1.0" encoding="UTF-8" standalone="no"?>
<!DOCTYPE svg PUBLIC "-//W3C//DTD SVG 1.1//EN"
 "http://www.w3.org/Graphics/SVG/1.1/DTD/svg11.dtd">
<!-- Generated by graphviz version 2.47.0 (20210316.0004)
 -->
<!-- Title: dependencies Pages: 1 -->
<svg width="1568pt" height="211pt"
 viewBox="0.00 0.00 1568.00 211.00" xmlns="http://www.w3.org/2000/svg" xmlns:xlink="http://www.w3.org/1999/xlink">
<g id="graph0" class="graph" transform="scale(1 1) rotate(0) translate(4 207)">
<title>dependencies</title>
<polygon fill="white" stroke="transparent" points="-4,4 -4,-207 1564,-207 1564,4 -4,4"/>
<text text-anchor="start" x="759.01" y="-42.4" font-family="Times-12" font-weight="bold" font-size="14.00">Legend</text>
<polygon fill="#ffffb3" stroke="transparent" points="546,-10 546,-30 566,-30 566,-10 546,-10"/>
<text text-anchor="start" x="569.63" y="-15.4" font-family="Times-12" font-size="14.00"> &#160;Declarations</text>
<polygon fill="#8dd3c7" stroke="transparent" points="659,-10 659,-30 679,-30 679,-10 659,-10"/>
<text text-anchor="start" x="682.73" y="-15.4" font-family="Times-12" font-size="14.00"> &#160;Module</text>
<polygon fill="#80b1d3" stroke="transparent" points="745,-10 745,-30 765,-30 765,-10 745,-10"/>
<text text-anchor="start" x="768.78" y="-15.4" font-family="Times-12" font-size="14.00"> &#160;Bootstrap</text>
<polygon fill="#fdb462" stroke="transparent" points="842,-10 842,-30 862,-30 862,-10 842,-10"/>
<text text-anchor="start" x="865.67" y="-15.4" font-family="Times-12" font-size="14.00"> &#160;Providers</text>
<polygon fill="#fb8072" stroke="transparent" points="938,-10 938,-30 958,-30 958,-10 938,-10"/>
<text text-anchor="start" x="961.73" y="-15.4" font-family="Times-12" font-size="14.00"> &#160;Exports</text>
<g id="clust1" class="cluster">
<title>cluster_AppModule</title>
<polygon fill="none" stroke="black" stroke-dasharray="1,5" points="8,-70 8,-195 1552,-195 1552,-70 8,-70"/>
</g>
<g id="clust6" class="cluster">
<title>cluster_AppModule_providers</title>
<polygon fill="none" stroke="black" points="982,-78 982,-130 1544,-130 1544,-78 982,-78"/>
</g>
<g id="clust3" class="cluster">
<title>cluster_AppModule_imports</title>
<polygon fill="none" stroke="black" points="16,-78 16,-130 974,-130 974,-78 16,-78"/>
</g>
<!-- AnnouncementModule -->
<g id="node1" class="node">
<title>AnnouncementModule</title>
<polygon fill="#8dd3c7" stroke="black" points="965.58,-122 962.58,-126 941.58,-126 938.58,-122 820.42,-122 820.42,-86 965.58,-86 965.58,-122"/>
<text text-anchor="middle" x="893" y="-99.8" font-family="Times,serif" font-size="14.00">AnnouncementModule</text>
</g>
<!-- AppModule -->
<g id="node8" class="node">
<title>AppModule</title>
<polygon fill="#8dd3c7" stroke="black" points="777.66,-187 774.66,-191 753.66,-191 750.66,-187 694.34,-187 694.34,-151 777.66,-151 777.66,-187"/>
<text text-anchor="middle" x="736" y="-164.8" font-family="Times,serif" font-size="14.00">AppModule</text>
</g>
<!-- AnnouncementModule&#45;&gt;AppModule -->
<g id="edge1" class="edge">
<title>AnnouncementModule&#45;&gt;AppModule</title>
<path fill="none" stroke="black" d="M893,-122.24C893,-137.57 893,-157 893,-157 893,-157 787.66,-157 787.66,-157"/>
<polygon fill="black" stroke="black" points="787.66,-153.5 777.66,-157 787.66,-160.5 787.66,-153.5"/>
</g>
<!-- AppointmentModule -->
<g id="node2" class="node">
<title>AppointmentModule</title>
<polygon fill="#8dd3c7" stroke="black" points="802.93,-122 799.93,-126 778.93,-126 775.93,-122 669.07,-122 669.07,-86 802.93,-86 802.93,-122"/>
<text text-anchor="middle" x="736" y="-99.8" font-family="Times,serif" font-size="14.00">AppointmentModule</text>
</g>
<!-- AppointmentModule&#45;&gt;AppModule -->
<g id="edge2" class="edge">
<title>AppointmentModule&#45;&gt;AppModule</title>
<path fill="none" stroke="black" d="M736,-122.11C736,-122.11 736,-140.99 736,-140.99"/>
<polygon fill="black" stroke="black" points="732.5,-140.99 736,-150.99 739.5,-140.99 732.5,-140.99"/>
</g>
<!-- AuthModule -->
<g id="node3" class="node">
<title>AuthModule</title>
<polygon fill="#8dd3c7" stroke="black" points="651.55,-122 648.55,-126 627.55,-126 624.55,-122 564.45,-122 564.45,-86 651.55,-86 651.55,-122"/>
<text text-anchor="middle" x="608" y="-99.8" font-family="Times,serif" font-size="14.00">AuthModule</text>
</g>
<!-- AuthModule&#45;&gt;AppModule -->
<g id="edge3" class="edge">
<title>AuthModule&#45;&gt;AppModule</title>
<path fill="none" stroke="black" d="M608,-122.24C608,-137.57 608,-157 608,-157 608,-157 684.09,-157 684.09,-157"/>
<polygon fill="black" stroke="black" points="684.09,-160.5 694.09,-157 684.09,-153.5 684.09,-160.5"/>
</g>
<!-- DocumentApplicationsModule -->
<g id="node4" class="node">
<title>DocumentApplicationsModule</title>
<polygon fill="#8dd3c7" stroke="black" points="546.91,-122 543.91,-126 522.91,-126 519.91,-122 357.09,-122 357.09,-86 546.91,-86 546.91,-122"/>
<text text-anchor="middle" x="452" y="-99.8" font-family="Times,serif" font-size="14.00">DocumentApplicationsModule</text>
</g>
<!-- DocumentApplicationsModule&#45;&gt;AppModule -->
<g id="edge4" class="edge">
<title>DocumentApplicationsModule&#45;&gt;AppModule</title>
<path fill="none" stroke="black" d="M452,-122.02C452,-139.37 452,-163 452,-163 452,-163 684.09,-163 684.09,-163"/>
<polygon fill="black" stroke="black" points="684.09,-166.5 694.09,-163 684.09,-159.5 684.09,-166.5"/>
</g>
<!-- QueueModule -->
<g id="node5" class="node">
<title>QueueModule</title>
<polygon fill="#8dd3c7" stroke="black" points="339.09,-122 336.09,-126 315.09,-126 312.09,-122 242.91,-122 242.91,-86 339.09,-86 339.09,-122"/>
<text text-anchor="middle" x="291" y="-99.8" font-family="Times,serif" font-size="14.00">QueueModule</text>
</g>
<!-- QueueModule&#45;&gt;AppModule -->
<g id="edge5" class="edge">
<title>QueueModule&#45;&gt;AppModule</title>
<path fill="none" stroke="black" d="M291,-122.11C291,-141.34 291,-169 291,-169 291,-169 684.14,-169 684.14,-169"/>
<polygon fill="black" stroke="black" points="684.14,-172.5 694.14,-169 684.14,-165.5 684.14,-172.5"/>
</g>
<!-- RolesModule -->
<g id="node6" class="node">
<title>RolesModule</title>
<polygon fill="#8dd3c7" stroke="black" points="224.94,-122 221.94,-126 200.94,-126 197.94,-122 133.06,-122 133.06,-86 224.94,-86 224.94,-122"/>
<text text-anchor="middle" x="179" y="-99.8" font-family="Times,serif" font-size="14.00">RolesModule</text>
</g>
<!-- RolesModule&#45;&gt;AppModule -->
<g id="edge6" class="edge">
<title>RolesModule&#45;&gt;AppModule</title>
<path fill="none" stroke="black" d="M179,-122.28C179,-143.32 179,-175 179,-175 179,-175 684.13,-175 684.13,-175"/>
<polygon fill="black" stroke="black" points="684.13,-178.5 694.13,-175 684.13,-171.5 684.13,-178.5"/>
</g>
<!-- UsersModule -->
<g id="node7" class="node">
<title>UsersModule</title>
<polygon fill="#8dd3c7" stroke="black" points="115.92,-122 112.92,-126 91.92,-126 88.92,-122 24.08,-122 24.08,-86 115.92,-86 115.92,-122"/>
<text text-anchor="middle" x="70" y="-99.8" font-family="Times,serif" font-size="14.00">UsersModule</text>
</g>
<!-- UsersModule&#45;&gt;AppModule -->
<g id="edge7" class="edge">
<title>UsersModule&#45;&gt;AppModule</title>
<path fill="none" stroke="black" d="M70,-122.09C70,-145.13 70,-182 70,-182 70,-182 684.34,-182 684.34,-182"/>
<polygon fill="black" stroke="black" points="684.34,-185.5 694.34,-182 684.34,-178.5 684.34,-185.5"/>
</g>
<!-- AppService -->
<g id="node9" class="node">
<title>AppService</title>
<ellipse fill="#fdb462" stroke="black" cx="1479" cy="-104" rx="56.74" ry="18"/>
<text text-anchor="middle" x="1479" y="-99.8" font-family="Times,serif" font-size="14.00">AppService</text>
</g>
<!-- AppService&#45;&gt;AppModule -->
<g id="edge8" class="edge">
<title>AppService&#45;&gt;AppModule</title>
<path fill="none" stroke="black" d="M1479,-122.09C1479,-145.13 1479,-182 1479,-182 1479,-182 787.81,-182 787.81,-182"/>
<polygon fill="black" stroke="black" points="787.81,-178.5 777.81,-182 787.81,-185.5 787.81,-178.5"/>
</g>
<!-- EmailService -->
<g id="node10" class="node">
<title>EmailService</title>
<ellipse fill="#fdb462" stroke="black" cx="1341" cy="-104" rx="63.12" ry="18"/>
<text text-anchor="middle" x="1341" y="-99.8" font-family="Times,serif" font-size="14.00">EmailService</text>
</g>
<!-- EmailService&#45;&gt;AppModule -->
<g id="edge9" class="edge">
<title>EmailService&#45;&gt;AppModule</title>
<path fill="none" stroke="black" d="M1341,-122.28C1341,-143.32 1341,-175 1341,-175 1341,-175 788.06,-175 788.06,-175"/>
<polygon fill="black" stroke="black" points="788.06,-171.5 778.06,-175 788.06,-178.5 788.06,-171.5"/>
</g>
<!-- LoggerService -->
<g id="node11" class="node">
<title>LoggerService</title>
<ellipse fill="#fdb462" stroke="black" cx="1192" cy="-104" rx="67.76" ry="18"/>
<text text-anchor="middle" x="1192" y="-99.8" font-family="Times,serif" font-size="14.00">LoggerService</text>
</g>
<!-- LoggerService&#45;&gt;AppModule -->
<g id="edge10" class="edge">
<title>LoggerService&#45;&gt;AppModule</title>
<path fill="none" stroke="black" d="M1192,-122.11C1192,-141.34 1192,-169 1192,-169 1192,-169 787.68,-169 787.68,-169"/>
<polygon fill="black" stroke="black" points="787.68,-165.5 777.68,-169 787.68,-172.5 787.68,-165.5"/>
</g>
<!-- OTPService -->
<g id="node12" class="node">
<title>OTPService</title>
<ellipse fill="#fdb462" stroke="black" cx="1048" cy="-104" rx="58.46" ry="18"/>
<text text-anchor="middle" x="1048" y="-99.8" font-family="Times,serif" font-size="14.00">OTPService</text>
</g>
<!-- OTPService&#45;&gt;AppModule -->
<g id="edge11" class="edge">
<title>OTPService&#45;&gt;AppModule</title>
<path fill="none" stroke="black" d="M1048,-122.02C1048,-139.37 1048,-163 1048,-163 1048,-163 787.75,-163 787.75,-163"/>
<polygon fill="black" stroke="black" points="787.75,-159.5 777.75,-163 787.75,-166.5 787.75,-159.5"/>
</g>
</g>
</svg>
