<?xml version="1.0" encoding="UTF-8" standalone="no"?>
<!DOCTYPE svg PUBLIC "-//W3C//DTD SVG 1.1//EN"
 "http://www.w3.org/Graphics/SVG/1.1/DTD/svg11.dtd">
<!-- Generated by graphviz version 2.47.0 (20210316.0004)
 -->
<!-- Title: dependencies Pages: 1 -->
<svg width="766pt" height="211pt"
 viewBox="0.00 0.00 766.00 211.00" xmlns="http://www.w3.org/2000/svg" xmlns:xlink="http://www.w3.org/1999/xlink">
<g id="graph0" class="graph" transform="scale(1 1) rotate(0) translate(4 207)">
<title>dependencies</title>
<polygon fill="white" stroke="transparent" points="-4,4 -4,-207 762,-207 762,4 -4,4"/>
<text text-anchor="start" x="358.01" y="-42.4" font-family="Times-12" font-weight="bold" font-size="14.00">Legend</text>
<polygon fill="#ffffb3" stroke="transparent" points="145,-10 145,-30 165,-30 165,-10 145,-10"/>
<text text-anchor="start" x="168.63" y="-15.4" font-family="Times-12" font-size="14.00"> &#160;Declarations</text>
<polygon fill="#8dd3c7" stroke="transparent" points="258,-10 258,-30 278,-30 278,-10 258,-10"/>
<text text-anchor="start" x="281.73" y="-15.4" font-family="Times-12" font-size="14.00"> &#160;Module</text>
<polygon fill="#80b1d3" stroke="transparent" points="344,-10 344,-30 364,-30 364,-10 344,-10"/>
<text text-anchor="start" x="367.78" y="-15.4" font-family="Times-12" font-size="14.00"> &#160;Bootstrap</text>
<polygon fill="#fdb462" stroke="transparent" points="441,-10 441,-30 461,-30 461,-10 441,-10"/>
<text text-anchor="start" x="464.67" y="-15.4" font-family="Times-12" font-size="14.00"> &#160;Providers</text>
<polygon fill="#fb8072" stroke="transparent" points="537,-10 537,-30 557,-30 557,-10 537,-10"/>
<text text-anchor="start" x="560.73" y="-15.4" font-family="Times-12" font-size="14.00"> &#160;Exports</text>
<g id="clust1" class="cluster">
<title>cluster_AppModule</title>
<polygon fill="none" stroke="black" stroke-dasharray="1,5" points="8,-70 8,-195 750,-195 750,-70 8,-70"/>
</g>
<g id="clust3" class="cluster">
<title>cluster_AppModule_imports</title>
<polygon fill="none" stroke="black" points="154,-78 154,-130 742,-130 742,-78 154,-78"/>
</g>
<g id="clust6" class="cluster">
<title>cluster_AppModule_providers</title>
<polygon fill="none" stroke="black" points="16,-78 16,-130 146,-130 146,-78 16,-78"/>
</g>
<!-- AppointmentModule -->
<g id="node1" class="node">
<title>AppointmentModule</title>
<polygon fill="#8dd3c7" stroke="black" points="733.93,-122 730.93,-126 709.93,-126 706.93,-122 600.07,-122 600.07,-86 733.93,-86 733.93,-122"/>
<text text-anchor="middle" x="667" y="-99.8" font-family="Times,serif" font-size="14.00">AppointmentModule</text>
</g>
<!-- AppModule -->
<g id="node6" class="node">
<title>AppModule</title>
<polygon fill="#8dd3c7" stroke="black" points="414.66,-187 411.66,-191 390.66,-191 387.66,-187 331.34,-187 331.34,-151 414.66,-151 414.66,-187"/>
<text text-anchor="middle" x="373" y="-164.8" font-family="Times,serif" font-size="14.00">AppModule</text>
</g>
<!-- AppointmentModule&#45;&gt;AppModule -->
<g id="edge1" class="edge">
<title>AppointmentModule&#45;&gt;AppModule</title>
<path fill="none" stroke="black" d="M667,-122.28C667,-143.32 667,-175 667,-175 667,-175 424.81,-175 424.81,-175"/>
<polygon fill="black" stroke="black" points="424.81,-171.5 414.81,-175 424.81,-178.5 424.81,-171.5"/>
</g>
<!-- AuthModule -->
<g id="node2" class="node">
<title>AuthModule</title>
<polygon fill="#8dd3c7" stroke="black" points="582.55,-122 579.55,-126 558.55,-126 555.55,-122 495.45,-122 495.45,-86 582.55,-86 582.55,-122"/>
<text text-anchor="middle" x="539" y="-99.8" font-family="Times,serif" font-size="14.00">AuthModule</text>
</g>
<!-- AuthModule&#45;&gt;AppModule -->
<g id="edge2" class="edge">
<title>AuthModule&#45;&gt;AppModule</title>
<path fill="none" stroke="black" d="M539,-122.02C539,-139.37 539,-163 539,-163 539,-163 424.89,-163 424.89,-163"/>
<polygon fill="black" stroke="black" points="424.89,-159.5 414.89,-163 424.89,-166.5 424.89,-159.5"/>
</g>
<!-- QueueModule -->
<g id="node3" class="node">
<title>QueueModule</title>
<polygon fill="#8dd3c7" stroke="black" points="477.09,-122 474.09,-126 453.09,-126 450.09,-122 380.91,-122 380.91,-86 477.09,-86 477.09,-122"/>
<text text-anchor="middle" x="429" y="-99.8" font-family="Times,serif" font-size="14.00">QueueModule</text>
</g>
<!-- QueueModule&#45;&gt;AppModule -->
<g id="edge3" class="edge">
<title>QueueModule&#45;&gt;AppModule</title>
<path fill="none" stroke="black" d="M397.89,-122.11C397.89,-122.11 397.89,-140.99 397.89,-140.99"/>
<polygon fill="black" stroke="black" points="394.39,-140.99 397.89,-150.99 401.39,-140.99 394.39,-140.99"/>
</g>
<!-- RolesModule -->
<g id="node4" class="node">
<title>RolesModule</title>
<polygon fill="#8dd3c7" stroke="black" points="362.94,-122 359.94,-126 338.94,-126 335.94,-122 271.06,-122 271.06,-86 362.94,-86 362.94,-122"/>
<text text-anchor="middle" x="317" y="-99.8" font-family="Times,serif" font-size="14.00">RolesModule</text>
</g>
<!-- RolesModule&#45;&gt;AppModule -->
<g id="edge4" class="edge">
<title>RolesModule&#45;&gt;AppModule</title>
<path fill="none" stroke="black" d="M346.94,-122.11C346.94,-122.11 346.94,-140.99 346.94,-140.99"/>
<polygon fill="black" stroke="black" points="343.45,-140.99 346.94,-150.99 350.45,-140.99 343.45,-140.99"/>
</g>
<!-- UsersModule -->
<g id="node5" class="node">
<title>UsersModule</title>
<polygon fill="#8dd3c7" stroke="black" points="253.92,-122 250.92,-126 229.92,-126 226.92,-122 162.08,-122 162.08,-86 253.92,-86 253.92,-122"/>
<text text-anchor="middle" x="208" y="-99.8" font-family="Times,serif" font-size="14.00">UsersModule</text>
</g>
<!-- UsersModule&#45;&gt;AppModule -->
<g id="edge5" class="edge">
<title>UsersModule&#45;&gt;AppModule</title>
<path fill="none" stroke="black" d="M208,-122.02C208,-139.37 208,-163 208,-163 208,-163 320.94,-163 320.94,-163"/>
<polygon fill="black" stroke="black" points="320.94,-166.5 330.94,-163 320.94,-159.5 320.94,-166.5"/>
</g>
<!-- AppService -->
<g id="node7" class="node">
<title>AppService</title>
<ellipse fill="#fdb462" stroke="black" cx="81" cy="-104" rx="56.74" ry="18"/>
<text text-anchor="middle" x="81" y="-99.8" font-family="Times,serif" font-size="14.00">AppService</text>
</g>
<!-- AppService&#45;&gt;AppModule -->
<g id="edge6" class="edge">
<title>AppService&#45;&gt;AppModule</title>
<path fill="none" stroke="black" d="M81,-122.28C81,-143.32 81,-175 81,-175 81,-175 321.16,-175 321.16,-175"/>
<polygon fill="black" stroke="black" points="321.16,-178.5 331.16,-175 321.16,-171.5 321.16,-178.5"/>
</g>
</g>
</svg>
