<?xml version="1.0" encoding="UTF-8" standalone="no"?>
<!DOCTYPE svg PUBLIC "-//W3C//DTD SVG 1.1//EN"
 "http://www.w3.org/Graphics/SVG/1.1/DTD/svg11.dtd">
<!-- Generated by graphviz version 2.47.0 (20210316.0004)
 -->
<!-- Title: dependencies Pages: 1 -->
<svg width="1136pt" height="211pt"
 viewBox="0.00 0.00 1136.00 211.00" xmlns="http://www.w3.org/2000/svg" xmlns:xlink="http://www.w3.org/1999/xlink">
<g id="graph0" class="graph" transform="scale(1 1) rotate(0) translate(4 207)">
<title>dependencies</title>
<polygon fill="white" stroke="transparent" points="-4,4 -4,-207 1132,-207 1132,4 -4,4"/>
<text text-anchor="start" x="543.01" y="-42.4" font-family="Times-12" font-weight="bold" font-size="14.00">Legend</text>
<polygon fill="#ffffb3" stroke="transparent" points="330,-10 330,-30 350,-30 350,-10 330,-10"/>
<text text-anchor="start" x="353.63" y="-15.4" font-family="Times-12" font-size="14.00"> &#160;Declarations</text>
<polygon fill="#8dd3c7" stroke="transparent" points="443,-10 443,-30 463,-30 463,-10 443,-10"/>
<text text-anchor="start" x="466.73" y="-15.4" font-family="Times-12" font-size="14.00"> &#160;Module</text>
<polygon fill="#80b1d3" stroke="transparent" points="529,-10 529,-30 549,-30 549,-10 529,-10"/>
<text text-anchor="start" x="552.78" y="-15.4" font-family="Times-12" font-size="14.00"> &#160;Bootstrap</text>
<polygon fill="#fdb462" stroke="transparent" points="626,-10 626,-30 646,-30 646,-10 626,-10"/>
<text text-anchor="start" x="649.67" y="-15.4" font-family="Times-12" font-size="14.00"> &#160;Providers</text>
<polygon fill="#fb8072" stroke="transparent" points="722,-10 722,-30 742,-30 742,-10 722,-10"/>
<text text-anchor="start" x="745.73" y="-15.4" font-family="Times-12" font-size="14.00"> &#160;Exports</text>
<g id="clust1" class="cluster">
<title>cluster_AppModule</title>
<polygon fill="none" stroke="black" stroke-dasharray="1,5" points="8,-70 8,-195 1120,-195 1120,-70 8,-70"/>
</g>
<g id="clust3" class="cluster">
<title>cluster_AppModule_imports</title>
<polygon fill="none" stroke="black" points="154,-78 154,-130 1112,-130 1112,-78 154,-78"/>
</g>
<g id="clust6" class="cluster">
<title>cluster_AppModule_providers</title>
<polygon fill="none" stroke="black" points="16,-78 16,-130 146,-130 146,-78 16,-78"/>
</g>
<!-- AnnouncementModule -->
<g id="node1" class="node">
<title>AnnouncementModule</title>
<polygon fill="#8dd3c7" stroke="black" points="1103.58,-122 1100.58,-126 1079.58,-126 1076.58,-122 958.42,-122 958.42,-86 1103.58,-86 1103.58,-122"/>
<text text-anchor="middle" x="1031" y="-99.8" font-family="Times,serif" font-size="14.00">AnnouncementModule</text>
</g>
<!-- AppModule -->
<g id="node8" class="node">
<title>AppModule</title>
<polygon fill="#8dd3c7" stroke="black" points="550.66,-187 547.66,-191 526.66,-191 523.66,-187 467.34,-187 467.34,-151 550.66,-151 550.66,-187"/>
<text text-anchor="middle" x="509" y="-164.8" font-family="Times,serif" font-size="14.00">AppModule</text>
</g>
<!-- AnnouncementModule&#45;&gt;AppModule -->
<g id="edge1" class="edge">
<title>AnnouncementModule&#45;&gt;AppModule</title>
<path fill="none" stroke="black" d="M1031,-122.29C1031,-144.21 1031,-178 1031,-178 1031,-178 560.84,-178 560.84,-178"/>
<polygon fill="black" stroke="black" points="560.84,-174.5 550.84,-178 560.84,-181.5 560.84,-174.5"/>
</g>
<!-- AppointmentModule -->
<g id="node2" class="node">
<title>AppointmentModule</title>
<polygon fill="#8dd3c7" stroke="black" points="940.93,-122 937.93,-126 916.93,-126 913.93,-122 807.07,-122 807.07,-86 940.93,-86 940.93,-122"/>
<text text-anchor="middle" x="874" y="-99.8" font-family="Times,serif" font-size="14.00">AppointmentModule</text>
</g>
<!-- AppointmentModule&#45;&gt;AppModule -->
<g id="edge2" class="edge">
<title>AppointmentModule&#45;&gt;AppModule</title>
<path fill="none" stroke="black" d="M874,-122.11C874,-141.34 874,-169 874,-169 874,-169 560.87,-169 560.87,-169"/>
<polygon fill="black" stroke="black" points="560.87,-165.5 550.87,-169 560.87,-172.5 560.87,-165.5"/>
</g>
<!-- AuthModule -->
<g id="node3" class="node">
<title>AuthModule</title>
<polygon fill="#8dd3c7" stroke="black" points="789.55,-122 786.55,-126 765.55,-126 762.55,-122 702.45,-122 702.45,-86 789.55,-86 789.55,-122"/>
<text text-anchor="middle" x="746" y="-99.8" font-family="Times,serif" font-size="14.00">AuthModule</text>
</g>
<!-- AuthModule&#45;&gt;AppModule -->
<g id="edge3" class="edge">
<title>AuthModule&#45;&gt;AppModule</title>
<path fill="none" stroke="black" d="M746,-122.03C746,-138.4 746,-160 746,-160 746,-160 560.83,-160 560.83,-160"/>
<polygon fill="black" stroke="black" points="560.83,-156.5 550.83,-160 560.83,-163.5 560.83,-156.5"/>
</g>
<!-- DocumentApplicationsModule -->
<g id="node4" class="node">
<title>DocumentApplicationsModule</title>
<polygon fill="#8dd3c7" stroke="black" points="684.91,-122 681.91,-126 660.91,-126 657.91,-122 495.09,-122 495.09,-86 684.91,-86 684.91,-122"/>
<text text-anchor="middle" x="590" y="-99.8" font-family="Times,serif" font-size="14.00">DocumentApplicationsModule</text>
</g>
<!-- DocumentApplicationsModule&#45;&gt;AppModule -->
<g id="edge4" class="edge">
<title>DocumentApplicationsModule&#45;&gt;AppModule</title>
<path fill="none" stroke="black" d="M523.06,-122.11C523.06,-122.11 523.06,-140.99 523.06,-140.99"/>
<polygon fill="black" stroke="black" points="519.56,-140.99 523.06,-150.99 526.56,-140.99 519.56,-140.99"/>
</g>
<!-- QueueModule -->
<g id="node5" class="node">
<title>QueueModule</title>
<polygon fill="#8dd3c7" stroke="black" points="477.09,-122 474.09,-126 453.09,-126 450.09,-122 380.91,-122 380.91,-86 477.09,-86 477.09,-122"/>
<text text-anchor="middle" x="429" y="-99.8" font-family="Times,serif" font-size="14.00">QueueModule</text>
</g>
<!-- QueueModule&#45;&gt;AppModule -->
<g id="edge5" class="edge">
<title>QueueModule&#45;&gt;AppModule</title>
<path fill="none" stroke="black" d="M472.11,-122.11C472.11,-122.11 472.11,-140.99 472.11,-140.99"/>
<polygon fill="black" stroke="black" points="468.61,-140.99 472.11,-150.99 475.61,-140.99 468.61,-140.99"/>
</g>
<!-- RolesModule -->
<g id="node6" class="node">
<title>RolesModule</title>
<polygon fill="#8dd3c7" stroke="black" points="362.94,-122 359.94,-126 338.94,-126 335.94,-122 271.06,-122 271.06,-86 362.94,-86 362.94,-122"/>
<text text-anchor="middle" x="317" y="-99.8" font-family="Times,serif" font-size="14.00">RolesModule</text>
</g>
<!-- RolesModule&#45;&gt;AppModule -->
<g id="edge6" class="edge">
<title>RolesModule&#45;&gt;AppModule</title>
<path fill="none" stroke="black" d="M317,-122.03C317,-138.4 317,-160 317,-160 317,-160 457.34,-160 457.34,-160"/>
<polygon fill="black" stroke="black" points="457.34,-163.5 467.34,-160 457.34,-156.5 457.34,-163.5"/>
</g>
<!-- UsersModule -->
<g id="node7" class="node">
<title>UsersModule</title>
<polygon fill="#8dd3c7" stroke="black" points="253.92,-122 250.92,-126 229.92,-126 226.92,-122 162.08,-122 162.08,-86 253.92,-86 253.92,-122"/>
<text text-anchor="middle" x="208" y="-99.8" font-family="Times,serif" font-size="14.00">UsersModule</text>
</g>
<!-- UsersModule&#45;&gt;AppModule -->
<g id="edge7" class="edge">
<title>UsersModule&#45;&gt;AppModule</title>
<path fill="none" stroke="black" d="M208,-122.11C208,-141.34 208,-169 208,-169 208,-169 457.15,-169 457.15,-169"/>
<polygon fill="black" stroke="black" points="457.15,-172.5 467.15,-169 457.15,-165.5 457.15,-172.5"/>
</g>
<!-- AppService -->
<g id="node9" class="node">
<title>AppService</title>
<ellipse fill="#fdb462" stroke="black" cx="81" cy="-104" rx="56.74" ry="18"/>
<text text-anchor="middle" x="81" y="-99.8" font-family="Times,serif" font-size="14.00">AppService</text>
</g>
<!-- AppService&#45;&gt;AppModule -->
<g id="edge8" class="edge">
<title>AppService&#45;&gt;AppModule</title>
<path fill="none" stroke="black" d="M81,-122.29C81,-144.21 81,-178 81,-178 81,-178 457.18,-178 457.18,-178"/>
<polygon fill="black" stroke="black" points="457.18,-181.5 467.18,-178 457.18,-174.5 457.18,-181.5"/>
</g>
</g>
</svg>
