<?xml version="1.0" encoding="UTF-8" standalone="no"?>
<!DOCTYPE svg PUBLIC "-//W3C//DTD SVG 1.1//EN"
 "http://www.w3.org/Graphics/SVG/1.1/DTD/svg11.dtd">
<!-- Generated by graphviz version 2.47.0 (20210316.0004)
 -->
<!-- Title: dependencies Pages: 1 -->
<svg width="929pt" height="211pt"
 viewBox="0.00 0.00 929.00 211.00" xmlns="http://www.w3.org/2000/svg" xmlns:xlink="http://www.w3.org/1999/xlink">
<g id="graph0" class="graph" transform="scale(1 1) rotate(0) translate(4 207)">
<title>dependencies</title>
<polygon fill="white" stroke="transparent" points="-4,4 -4,-207 925,-207 925,4 -4,4"/>
<text text-anchor="start" x="439.51" y="-42.4" font-family="Times-12" font-weight="bold" font-size="14.00">Legend</text>
<polygon fill="#ffffb3" stroke="transparent" points="226.5,-10 226.5,-30 246.5,-30 246.5,-10 226.5,-10"/>
<text text-anchor="start" x="250.13" y="-15.4" font-family="Times-12" font-size="14.00"> &#160;Declarations</text>
<polygon fill="#8dd3c7" stroke="transparent" points="339.5,-10 339.5,-30 359.5,-30 359.5,-10 339.5,-10"/>
<text text-anchor="start" x="363.23" y="-15.4" font-family="Times-12" font-size="14.00"> &#160;Module</text>
<polygon fill="#80b1d3" stroke="transparent" points="425.5,-10 425.5,-30 445.5,-30 445.5,-10 425.5,-10"/>
<text text-anchor="start" x="449.28" y="-15.4" font-family="Times-12" font-size="14.00"> &#160;Bootstrap</text>
<polygon fill="#fdb462" stroke="transparent" points="522.5,-10 522.5,-30 542.5,-30 542.5,-10 522.5,-10"/>
<text text-anchor="start" x="546.17" y="-15.4" font-family="Times-12" font-size="14.00"> &#160;Providers</text>
<polygon fill="#fb8072" stroke="transparent" points="618.5,-10 618.5,-30 638.5,-30 638.5,-10 618.5,-10"/>
<text text-anchor="start" x="642.23" y="-15.4" font-family="Times-12" font-size="14.00"> &#160;Exports</text>
<g id="clust1" class="cluster">
<title>cluster_AppModule</title>
<polygon fill="none" stroke="black" stroke-dasharray="1,5" points="8,-70 8,-195 913,-195 913,-70 8,-70"/>
</g>
<g id="clust3" class="cluster">
<title>cluster_AppModule_imports</title>
<polygon fill="none" stroke="black" points="154,-78 154,-130 905,-130 905,-78 154,-78"/>
</g>
<g id="clust6" class="cluster">
<title>cluster_AppModule_providers</title>
<polygon fill="none" stroke="black" points="16,-78 16,-130 146,-130 146,-78 16,-78"/>
</g>
<!-- AnnouncementModule -->
<g id="node1" class="node">
<title>AnnouncementModule</title>
<polygon fill="#8dd3c7" stroke="black" points="896.58,-122 893.58,-126 872.58,-126 869.58,-122 751.42,-122 751.42,-86 896.58,-86 896.58,-122"/>
<text text-anchor="middle" x="824" y="-99.8" font-family="Times,serif" font-size="14.00">AnnouncementModule</text>
</g>
<!-- AppModule -->
<g id="node7" class="node">
<title>AppModule</title>
<polygon fill="#8dd3c7" stroke="black" points="470.66,-187 467.66,-191 446.66,-191 443.66,-187 387.34,-187 387.34,-151 470.66,-151 470.66,-187"/>
<text text-anchor="middle" x="429" y="-164.8" font-family="Times,serif" font-size="14.00">AppModule</text>
</g>
<!-- AnnouncementModule&#45;&gt;AppModule -->
<g id="edge1" class="edge">
<title>AnnouncementModule&#45;&gt;AppModule</title>
<path fill="none" stroke="black" d="M824,-122.29C824,-144.21 824,-178 824,-178 824,-178 480.9,-178 480.9,-178"/>
<polygon fill="black" stroke="black" points="480.9,-174.5 470.9,-178 480.9,-181.5 480.9,-174.5"/>
</g>
<!-- AppointmentModule -->
<g id="node2" class="node">
<title>AppointmentModule</title>
<polygon fill="#8dd3c7" stroke="black" points="733.93,-122 730.93,-126 709.93,-126 706.93,-122 600.07,-122 600.07,-86 733.93,-86 733.93,-122"/>
<text text-anchor="middle" x="667" y="-99.8" font-family="Times,serif" font-size="14.00">AppointmentModule</text>
</g>
<!-- AppointmentModule&#45;&gt;AppModule -->
<g id="edge2" class="edge">
<title>AppointmentModule&#45;&gt;AppModule</title>
<path fill="none" stroke="black" d="M667,-122.11C667,-141.34 667,-169 667,-169 667,-169 480.73,-169 480.73,-169"/>
<polygon fill="black" stroke="black" points="480.73,-165.5 470.73,-169 480.73,-172.5 480.73,-165.5"/>
</g>
<!-- AuthModule -->
<g id="node3" class="node">
<title>AuthModule</title>
<polygon fill="#8dd3c7" stroke="black" points="582.55,-122 579.55,-126 558.55,-126 555.55,-122 495.45,-122 495.45,-86 582.55,-86 582.55,-122"/>
<text text-anchor="middle" x="539" y="-99.8" font-family="Times,serif" font-size="14.00">AuthModule</text>
</g>
<!-- AuthModule&#45;&gt;AppModule -->
<g id="edge3" class="edge">
<title>AuthModule&#45;&gt;AppModule</title>
<path fill="none" stroke="black" d="M539,-122.03C539,-138.4 539,-160 539,-160 539,-160 480.9,-160 480.9,-160"/>
<polygon fill="black" stroke="black" points="480.9,-156.5 470.9,-160 480.9,-163.5 480.9,-156.5"/>
</g>
<!-- QueueModule -->
<g id="node4" class="node">
<title>QueueModule</title>
<polygon fill="#8dd3c7" stroke="black" points="477.09,-122 474.09,-126 453.09,-126 450.09,-122 380.91,-122 380.91,-86 477.09,-86 477.09,-122"/>
<text text-anchor="middle" x="429" y="-99.8" font-family="Times,serif" font-size="14.00">QueueModule</text>
</g>
<!-- QueueModule&#45;&gt;AppModule -->
<g id="edge4" class="edge">
<title>QueueModule&#45;&gt;AppModule</title>
<path fill="none" stroke="black" d="M429,-122.11C429,-122.11 429,-140.99 429,-140.99"/>
<polygon fill="black" stroke="black" points="425.5,-140.99 429,-150.99 432.5,-140.99 425.5,-140.99"/>
</g>
<!-- RolesModule -->
<g id="node5" class="node">
<title>RolesModule</title>
<polygon fill="#8dd3c7" stroke="black" points="362.94,-122 359.94,-126 338.94,-126 335.94,-122 271.06,-122 271.06,-86 362.94,-86 362.94,-122"/>
<text text-anchor="middle" x="317" y="-99.8" font-family="Times,serif" font-size="14.00">RolesModule</text>
</g>
<!-- RolesModule&#45;&gt;AppModule -->
<g id="edge5" class="edge">
<title>RolesModule&#45;&gt;AppModule</title>
<path fill="none" stroke="black" d="M317,-122.03C317,-138.4 317,-160 317,-160 317,-160 377.3,-160 377.3,-160"/>
<polygon fill="black" stroke="black" points="377.3,-163.5 387.3,-160 377.3,-156.5 377.3,-163.5"/>
</g>
<!-- UsersModule -->
<g id="node6" class="node">
<title>UsersModule</title>
<polygon fill="#8dd3c7" stroke="black" points="253.92,-122 250.92,-126 229.92,-126 226.92,-122 162.08,-122 162.08,-86 253.92,-86 253.92,-122"/>
<text text-anchor="middle" x="208" y="-99.8" font-family="Times,serif" font-size="14.00">UsersModule</text>
</g>
<!-- UsersModule&#45;&gt;AppModule -->
<g id="edge6" class="edge">
<title>UsersModule&#45;&gt;AppModule</title>
<path fill="none" stroke="black" d="M208,-122.11C208,-141.34 208,-169 208,-169 208,-169 377.17,-169 377.17,-169"/>
<polygon fill="black" stroke="black" points="377.17,-172.5 387.17,-169 377.17,-165.5 377.17,-172.5"/>
</g>
<!-- AppService -->
<g id="node8" class="node">
<title>AppService</title>
<ellipse fill="#fdb462" stroke="black" cx="81" cy="-104" rx="56.74" ry="18"/>
<text text-anchor="middle" x="81" y="-99.8" font-family="Times,serif" font-size="14.00">AppService</text>
</g>
<!-- AppService&#45;&gt;AppModule -->
<g id="edge7" class="edge">
<title>AppService&#45;&gt;AppModule</title>
<path fill="none" stroke="black" d="M81,-122.29C81,-144.21 81,-178 81,-178 81,-178 377.02,-178 377.02,-178"/>
<polygon fill="black" stroke="black" points="377.02,-181.5 387.02,-178 377.02,-174.5 377.02,-181.5"/>
</g>
</g>
</svg>
